<mxfile host="Electron" modified="2024-09-14T05:54:37.340Z" agent="Mozilla/5.0 (Macintosh; Intel Mac OS X 10_15_7) AppleWebKit/537.36 (KHTML, like Gecko) draw.io/21.2.8 Chrome/112.0.5615.165 Electron/24.2.0 Safari/537.36" etag="-eZCn7QsAJNmymWtLAnQ" version="21.2.8" type="device">
  <diagram name="Page-1" id="YxNK7CoKcVMLjf8GIzqv">
    <mxGraphModel dx="1283" dy="965" grid="1" gridSize="10" guides="1" tooltips="1" connect="1" arrows="1" fold="1" page="1" pageScale="1" pageWidth="1169" pageHeight="827" math="0" shadow="0">
      <root>
        <mxCell id="0" />
        <mxCell id="1" parent="0" />
        <mxCell id="QVymqVo6n4Ka5hsR-ZMD-50" value="" style="rounded=1;whiteSpace=wrap;html=1;dashed=1;" vertex="1" parent="1">
          <mxGeometry x="300" y="720" width="650" height="510" as="geometry" />
        </mxCell>
        <mxCell id="QVymqVo6n4Ka5hsR-ZMD-12" value="" style="rounded=1;whiteSpace=wrap;html=1;dashed=1;" vertex="1" parent="1">
          <mxGeometry x="300" y="280" width="640" height="380" as="geometry" />
        </mxCell>
        <mxCell id="QVymqVo6n4Ka5hsR-ZMD-5" style="edgeStyle=orthogonalEdgeStyle;rounded=0;orthogonalLoop=1;jettySize=auto;html=1;entryX=0;entryY=0.5;entryDx=0;entryDy=0;entryPerimeter=0;" edge="1" parent="1" source="QVymqVo6n4Ka5hsR-ZMD-1" target="QVymqVo6n4Ka5hsR-ZMD-2">
          <mxGeometry relative="1" as="geometry" />
        </mxCell>
        <mxCell id="QVymqVo6n4Ka5hsR-ZMD-1" value="" style="shape=image;verticalLabelPosition=bottom;labelBackgroundColor=default;verticalAlign=top;aspect=fixed;imageAspect=0;image=data:image/png,iVBORw0KGgoAAAANSUhEUgAAAgAAAAIACAYAAAD0eNT6AAAABHNCSVQICAgIfAhkiAAAAAlwSFlzAAAOxAAADsQBlSsOGwAAABl0RVh0U29mdHdhcmUAd3d3Lmlua3NjYXBlLm9yZ5vuPBoAACAASURBVHic7N13eBXVogXwdU56r6RQQu+9995r6F0RUeyCYkG9inIVwYIUlSJNFKUI0jtIUbr03qSnECAkpLf3Rx5XRBJyZu85+5wz6/d99/ve08yehSSZdWb27G2CMXkDaAagPoDy//+/QgC8APgrzEVE8uQAiAFwDMBCAD8AyLDSuU0AugEYDKAhgFAAzlY6N9m3HABxAG4CiEbu9+8RALsAnJF5IpPMwWxcAIC+AAYCaAT+MBIZzVkAvZH7C1VPYQAWIfdDBpFMFwCsBjAXuaVAiBEKQGkAo5HbxN0VZyEitRIBNIWEX555CAWwG0BJncYnum8vgC8B/ILcuwYWc+QCEAJgPIAnATgpzkJEtuMigMoAUnUYeyOAtjqMS5SXwwDeArDJ0gPN8rPYhGcBnAYwFLz4E9E/lQIwXIdxW4MXf7K+Gsgtnt8DCLTkQEcrAH4AlgCYidxn/kREjzJQhzEH6DAmUUE9CeAogAYFPcCRCkApAPuRO8mHiCg/tSD/919tyeMRWaoIgG0AhhXkix1lJnwNAOuQO/uWiOhxXLbsPPJBkYjiKbIGrFMlouS9xARZwxFp5QbgO+TeEZ+Y3xc6QgGoBGAzgCDVQYjIPjg7uyC8WMQYmOTNgy4WURynTuj9hiFRgZiQ+4aAE4DP8/oie38EUAzAevDiT0QWqFytBsxmub/+qlSrJXU8IgkmAOiX17+05wLgCmApcksAEVGBdYmUP1Wosw5jEgkyAZiH3Dkv/2LPBWACgLqqQxCRfYkoXhL9Bg2VPm6DRs3QuFkr6eMSCXIH8BNyl7r/B3stAM0AjFAdgojsi7e3D6bOXABXVzddxv9s0kwULVZcl7GJBJRH7ofmf7DHAuAC4Fs49iqGRCRZqdLl8POvG1G+YmXdzhEUXAgLl29CvYZNdDsHkUbPA6j+4D+wx4voSwC+Vh2CiGyb2WxGUHAIylesjM7deqFbj35wcrbei0+/bV6HFUsX4vDBfYi7eROZmdbaiJAoT78B+N9zKnsrAK4AzgGIkDGYk5MTatVpgFbtOqF23YYIDQtHUHAhODu7yBieiIgcyLDBPfDHjq3SxgsvWhq1G7VD1botUCi0GHz9g5GTk424mGu4dukM9u1cgyP7tiI9Teq2FU0B/A7YXwF4CrnbIApr1bYTXh89BmXKVpAxHBERObDz506ja5sGyMnRtPHePxSOKIM+Q99G7UbtH/u19xLu4Jd5n2Pbup+RnZ0lfG4AKwFEAvZXAH4H0FhkAA9PT4yfOB3tO0VKikRERI5uzDsjsWiB+OfP9j2Gof+z78HJybLHURdOH8KkD5/B3Ts3RSNkAygB4Ko9FYDSyL39rzlzQGAQZi9YjkqVq8lLRUREDi0rMxONapXB3fg7mscwmUwYOmI8WnTUvmdUXMw1fP7uE4i6dkHzGP/vTQBf2NNbAD0hcPF3dnbBlOnzefEnIiKLHDywR+jiDwC9hrwhdPEHgODQohj18ffw8vEXGgdAX8C+XgNsKXLwqNFjULcBX80hIiLL/LZlg9DxtRu1R9f+L0vJEhIegRfeniw6TG0A/vZSAJyRO3NRk2IRJTB46HMS4xARkVEc/nOf5mOdnV0wYPh/YJK48VS1ui1Rq2E7kSHMAJraSwEoBcBb68EvvPomXFxcJcYhIiIjyMnJwdnTJzQf37xDf4SEy18dss/Qt2AyCV3C69lLASiv9UBnZxe0ad9FZhYiIjKI69eu4N69RM3HN2jRTWKavxUpXg6lK9QUGaKcvRSAUloPrF2vAXz9hCdMEBGRAUXduKb5WB+/IJStXEdimn+q1UjoMUAZeykAfloPLFW6nMwcRERkIPcSEzQfG16sFMxmJ4lp/ql8ZaENcUPtpQD4aD0wJDRcZg4iIjKQxATtBcA/MERikn8LKCR0ffO2lwLgrvVAX1/NNw+IiMjgUlO1r8Pv6aXv9UewYNhNASAiIlJA+9r/Et/8eyTBjeucWACIiIgMiAWAiIjIgFgAiIiIDIgFgIiIyIBYAIiIiAyIBYCIiMiAWACIiIgMiAWAiIjIgFgAiIiIDIgFgIiIyIBYAIiIiAyIBYCIiMiAWACIiIgMiAWAiIjIgFgAiIiIDIgFgIiIyIBYAIiIiAyIBYCIiMiAWACIiIgMiAWAiIjIgFgAiIiIDIgFgIiIyIBYAIiIiAyIBYCIiMiAWACIiIgMiAWAiIjIgFgAiIiIDIgFgIiIyIBYAIiIiAyIBYCIiMiAWACIiIgMiAWAiIjIgFgAiIiIDMhZ5/HdAJQFEAbA+///56lhnMpaAxw8sAcurq5aDyciIgu4urrCw9MLPr5+8PPzR/GSpeHt7aM6Fj2C7AJQCkBrAK0A1AdQHIrvMqxZuRRrVi5VGYGIyNBCQsNRqUp11G/UFA0aNUfFylVVRyLIKQC+AAYCeBJAQwnjERGRA4mNiUJsTBS2bVkPAChZuiy69xqA7r0HIDSssOJ0xiXy6TwIwIcA/gIwDbz4ExFRAfx14Ry++mws2jSujrdHPodLF8+rjmRIWgqAGbmf9s8AGAMgUGoiIiIyhIyMdKxYthBd2jTAJ2PeRtK9e6ojGYqlBaAcgD0AvkfuHQAiIiIhmZkZ+GHudHRpWx97d+1UHccwLCkAAwEcAFBXpyxERGRgUdev4elBkfhm0gRkZ2erjuPwCloA3gawAADf5SAiIt1kZWVh6sRxeGX4YKSmpqiO49AeVwDMyJ3gN94KWYiIiAAAWzauwfAhvTkvQEePKwCfA3jeGkGIiIgetG/373jxmf5IT09THcUh5VcARgN43VpBiIiIHrZ31068PfI55OTkqI7icPIqAC0BfGzNIERERI+ybvWvmDtzquoYDudRBSAMwM8AnKychYiI6JEmThiLw3/uUx3DoTyqAEwGEGrtIERERHnJzMzA6FEvcD6ARA8XgLYA+qoIQkRElJ9LF89j3qxvVcdwGA9uBmQCMFH2CcxmM0qWKoOQkFCEFy4CT08tuwETEZE9SEtLQ2xsDKKjruOvixelf2KfPvVz9On/JAICuRitqAcLQCSAKrIGrlu/Ifr1fwLtOnRCoUIhsoYlIiI7ce9eIn7bsgm/LluM9WtXSZnJn5yUhO9nf4uRb74vIaGxPfgI4B0ZA5YuUw7zflyClWu2YNATT/HiT0RkUN7ePuga2RNzvl+ItRt3oEHDJlLGXTBvJpKTkqSMZWT3C0BlAPVEB2vVph3WbtyB9h06iw5FREQOpEbN2li2cgNGvfWe8FiJiQnYuG6FhFTGdr8ADBEdaODgp/DDT8vg6+srOhQRETkgk8mEN956D+MmfCU81vJffpaQyNjuF4BeIoM0atwM4z+fDLPZ0t2FiYjIaIYOew7PDH9RaIx9e37H3fg7khIZkxlAcQCltA7g6+uLGbN/gIuLi7xURETk0MaMHY/KVappPj47Oxv7du+UmMh4zABaiAzw4iuvIzi4kJw0RERkCM7Oznh/jNiK83tYAISYAVTXerCvnx+GP/+yxDhERGQUzVu2QZ269TUff/bUCYlpjMcMoLzWg9u07QgPDy7sQ0RE2nTp2kPzsRcvnJOYxHjMAEprPbht+44SoxARkdG066j9tfFbcbFIundPYhpjMQMI0Hpw+fKVJEYhIiKjKVGiFNzc3DUfn5BwV2IaYzED8NZ6cGhomMQoRERkNCaTCSGh2jegTUpKlJjGWMwAPLQeHBAYKDEKEREZUaDAxj4pyckSkxiLGbm7AGpiMmk+lIiICACEFpGTscGQUXHpPiIiIgNyfvyXqJOenoaU5BTVMYiIDMvVzZWvezsomysAu3ftxPy5s/D7zm2Ii7upOg4RkeH5+PiiTr366NNvECK79+a+Lw7CZv4WU1KS8cKzQ9CzW3ss/3UJL/5ERDYiMTEBv23ZhBeHP4WuHVsi6sZ11ZFIApsoABnp6RjUrweW/7pEdRQiIsrHwT/3o2unVoiNjVEdhQTZRAH4fMLH2L2LmzoQEdmD69eu4tWXnlUdgwQpLwBxcTfx3YxvVMcgIiILbP9tM3b9sUN1DBKgvABsWLcGqamc6U9EZG9W/PqL6ggkQHkBOHb0kOoIRESkwfFjR1RHIAHKC8Dt27dURyAiIg1u3oxVHYEEKC8A2dnZqiMQEZEG/P1t35QXACIiIrI+FgAiIiIDYgEgIiIyIBYAIiIiA2IBICIiMiCb2w3QEl6eLnB1cVIdg4jIbmVn5+BuYprqGKSAXReA77+MRK+OFVXHICKyW1du3EXxRlNUxyAF+AiAiIjIgFgAiIiIDIgFgIiIyIBYAIiIiAyIBYCIiMiAWACIiIgMiAWAiIjIgFgAiIiIDIgFgIiIyIBYAIiIiAyIBYCIiMiAWACIiIgMiAWAiIjIgFgAiIiIDIgFgIiIyIBYAIiIiAzIWXUAW5GUnIH128/j0IloxN1ORliIN+rXKII2TUrBxdk+etLJczexdN1pnL4Qh/iEVISH+KBpvWKIbFse/r7uup8/PiEVKzadwc59VxEVm4j0jCzdz/kwZyczQoK9ULdaYfTsUAGFQ310P2dKaibWbD2Hrbv+wtWoBLi7OaN8qSB0b1cBdaqF637+/Fy5cRfrt13AsTOxyMzMRoXSwWjVqASqVghRmisxKR0btl/AkVMxuB2fgtBgLzSsVRTNGxSHq4uT0mwFkZKaiWNnYnHh8m1cvBKPqzfu4vbdVGRmZiMxKQ3enq7w9XGDr7cbioX7okyJQJQpEYBKZQrB2U5+n5DjM3wByMzMxhff7cb4b//A3cS0f/37ImE+GPdmKzzZq5qCdAVz83YyXv5gHZasOYmcnH/+u9mLDiHAzx1jX2+Bl4fU1S3D1Hn7MearbbhzN1W3c1hi/tKjeHPcZox4uh7+O6qlbiVu0eoTGPXxJlyPTvzXv/vk69/RvllpzBzfGRGF/XQ5f15i4pLw+n83YtHqE8jKyvnXv2/VqASmfNgBlcsVsmqurKwcfD5zV54/b0XDffHpW60wuEdVq+Z6nOzsHPx+4Co27byIbXsuYd/hG5oKrqeHC+pUDUej2sXQsWUZNK5dDE5OJh0SEz2eoQtAalomegxfjPXbL+T5NdejEzFk1ArsPXwdX4/tCJON/axeuXEXLfv/gItX7uT5NXfupuKVMetx9HQsZozrLPXPkJMDPPfuGnz380F5g0qSmpaJCdN24cDRKKye0x/ubnK/3f87ZSc+mLgt36/ZsOMC6nadjc0LBlvtU/fpC3FoPfBH3Ij5dym5b+uuS2jQYw4WTu2Jzq3KWiVXSmomuj+7CBt3Xszza65FJeCJ15Zj35HrmPJhB6vkys+Fy3cwf9lRzF96FJeuxQuPl5ySgR37rmDHvisYP+0PBPp7oGvrchjSuxqa1y8Os9nGfsGQQzP0vagX3lub78X/Qd/+cAATpv+hcyLLZGRmo/uzi/O9+D/ou58PYtKcvVIzTJy1xyYv/g/a8sdfeGXMeqlj/rL2FMZ8ta1AXxt7Kwldhy185Cde2RLupaHDkz/le/G/715SOvq/sgwnz93UPReQWxTzu/g/aOq8/fjyuz06J8rb5et3MWTUCpRr+Q3GTt4h5eL/KLfjU/D90iNoNeAHlG72NSbP2Yek5AxdzkX0MMMWgB37rmDeL0csOuaDL7fhwNEonRJZbvaiQzh0ItqiY8ZM3Iabt5OlnD/2VhI+mrRdylh6m73oEP48JufvLjUtE6//d+O/Hrfk5/L1u/hs+i4p58/P2Mk7cPn63QJ//b2kdIz4aIOOiXLt2HcFPyw7atExH0zcVqAiI1NScgZGfbwJ5Vt+g/lLjyI724K/ZEGXrsVj5NgNKN54Mj6ctB1xkn5OifJi2ALwzfz9Fh+TkZmNJ15bjpTUTB0SWe67nw9ZfExiUjoWrToh5fw/rziBxKR0KWPpLScntwTIsG7beVyNSrD4uDmLD+t6QUlJzcTsRYctPm7z739h/5EbOiT627fzD1h8THJKBuYusaykizh8Mhp1us7CxFl7kJZu/Qms9926k4KPJu1AiSZT8NGkHTbz+4Ycj2ELwJY//tJ03OkLcRg9YYvkNJaLT0jFoRPaPtFu33tZSgZZ41jLb7vl5N22R9s40Tfv4fBJy+7YWGLTzouIT9A2CXPBimOS0/wtOzsHG3YU7FHbwzYV8JGBqOkL/kSD7nNw+kKcVc5XEEnJGfhw0nZUajMNy9afVh2HHJAhC0BScgZu3UnRfPzUefs0FwhZom/es+gW9IOu3rD80+ujWPv2rKjr0er/3Ho+Qlqx6Yz2YzeelZjkn85duq25mFy5UfDHGVqNn/YHXnhvrdJP/fm5dC0evZ5fgm7PLEJMXJLqOORADFkAUtPEbqnl5ABDRq3A7XjtJUKUyC8rWbcUbfUXZl68vVzljOOpfZyDx/UpAFlZOVi1WftF/NK1eBw9HSMx0d8OHNX+eEHvNQE+nLQd70zYqus5ZFm1+Syqtpsu9PdM9CBDFgAZrkcnWmXyVF6cBF4XytZ668DOVSgdLGWcksX8NR970MJJmwW1++A14cmdet0FsHSi6oOKhvtKTPJPc5ccxkeTdug2vh5u3k5G5LOL8MXM3aqjkANgARDw46/HsHj1SSXnFnlfOCsrW2IS+9G9XXkp49Sqon11vyMnY3RZIXH5RvFnxCKPEPIj8tijVpUwiUn+dvB4FF78zzpdxtZbTg7w5rjNFr/FRPQwFgBBz7+3Btc0zAgX5eSk/a/Omq822YrwEG8M61dTylgiF6X0jCxd3rtftfmc8BgHj0dpershPzk5EJr4WLuq/KWUk5Iz0PuFX4QfBao28qMNiL3FOQGkHQuAoDt3UzHsrVWaJ+RpZRZYzi/LYAXAycmE2Z91hZeni5TxCof6IDzEW/PxstYjuO/E2Zs4+9ct4XFyciD9+fK5S7eEFkCqLXC3JS8Tpv+Bv67qs7CPNd1NTMPcxbwLQNqxAEiwcedFzLTyangi64cb6Q6Aj5crlk3vi44tykgdV+QxwMHjcucByLx1v2Kj3McAImXHz8cNpYsHSkyTO3dn4ix1KwzKtn77edURyI6xAEgy6uONOPfXbaudj3MA8hfg547hA2vh5OYX0K1tOenji9yaln0HQOZF+7fdlzS/svcoIn/WWlXCpe+9MXbKDodaavesFX/nkOMx9GZAMiUlZ2DIqBXYueQpq+zuZe9zAKaP64zSEQHSx3VyMiE02AtlSwbpuo2zyDyAI6dikJGZLSXfjZhE7Bd4ze5hGZnZ2LjjIvp2qSRlPJECIPv5/72kdPy84rjUMYMCPNCkTgSqVwpFiaJ+8PZ0hb+vO+4mpiH2VhJOnY/DweNROHIqxqGKBzkGFgCJdh+8hs9m7MI7LzbW/Vz2Pgegfo3CqFFJnxne1iDybDo1LROnz8dJ2R1w5eaz0uefrNh0RkoByJ0AqH1tAdkFYPGak1KWrnZ1ccKg7lXxdN8aaFynWIHuUmRl5WD/0RtYtOoEFq85KW0RrdLF5ZdoMg4+ApBszETrbBjEOQBqFQ33RWiwl+bj/5S0IJDsZ/YAsGbrOSmvKp4XWAEQkD8BcMFy8eWOm9cvjmMbn8Ocz7uiSd2CXfyB3J/XBjWL4KsP2uHq7hFYO28AmtcvLpyndaOSwmOQcbEASJaRmY0ho1bo/oqRyBwAFgA5albWfgdDxoqA95LSNe9LkJ+7iWnYue+K8DgiJcfX203qp9vMzGzsPXxdaIwne1XDpgWDUa5kkNA4ZrMJHVuUwbZFT2LXsqFoWi9C0zieHi54doCcV1vJmFgAdHDy3E28/+U2Xc/hZNb+V5eV7fiTAK1B9UTAddvO61Y0ZbxZIDYBMEyo5D7s2JlYoWfwTetFYNaErtLnlTSsVRTbFw3Bz1N7IiTIsjtKn77VCoVDfaTmIWNhAdDJxFl7dPl0dh/vAKgn8irg4ZMxyMwUK2IrNum3JvyKjeJzC2xpAuA+ge2OzWYTpn/SSbdJpSYT0L9rZRzd8By6tinYGyujX2iMV4fW0yUPGQcLgE6ys3Mw9I2VSLinfRGU/IjMAcjKYgGQQeQilZySgTMXtS/ek5GZjbW/ia/+l5crN+7iyCnt6xXk5IjtASC7AIis1tmyYQlUKltIYppHCw32wspZ/TDn86557oFQrmQQVs7qh0/fbqV7HnJ8fAtAR5euxWPkRxsx5/Ou0scWeQvAqJsByVa8iB+CAz0Rp3ETnoPHo1C5nLYLy469l3Hnrrz39R9lxcazmt/UuHBZcAKg5AJw6472jZJaNSohL0gBDO1TA0/2rI4d+y7j8MkYxN1ORkiQF+rVKIwGNYtKXxuBjIt3AHQ2d8lhLF13Svq4IusAGGEhIGsRmwio/ROyXhv3PGilwLLAIhMAfbxcUUbyCoC347WXEZFln7VycjKhZcMSeG1YfXzyZkuMeLoeGtbixZ/kYgGwghfeW4uYOLmbdnAOgG0QeVVN5CK5eot+t//vO3g8CpeuaVszX3QFQJkTAAHA1dVJ87H8eSFHxQJgBTdvJ2P4O6uljukkshQwf6FJI7Ii4KET0ZouLodORFttM5s1W7WtNW9LEwABINDfXfOx+wUmEBLZMhYAK1m56SzmLjksbTzeAbANIhere0npmnbxs8btf5Fz2doKgAAQ4Ouh+djlG89IWUGQyNawAFjRqx9uwPlLcjbvMJtNmp8HZmfnWH37YkdVslgAAv21X1y0zANYsVG/1/8etm235ZsDXbxyB7fjUzSfU48CUKlssOZjY+KS8IHO63oQqcACYEX3ktLx1Bsrpb2Gx7sA6plMYhMBLb1Vfvm62Ot5lsrIzMb67RcsOkbk9r+3lyvKlpA7ARAA6tUoInT8pDl7Mear7cgQXLuByJawAFjZHweuYtKcvVLG4quAtkFkHoClSwKv2HjG6ndvLN1v4OAJ7QWgZmW5KwDeV7yIH8IKic3mHzt5B0o0noKPp+6UPqmXSAUWAAXe+3wrjp7W/oz0Pr4KaBtEblkfPG7ZREBrPv+/b9228xZtDiQ0AVDyBkAP6tmhgvAYN2IS8f6X2xDRcDL6vrQUm3//S0IyIjVYABRIS8/CkNdXCu+4xtUAbUOtytovWgn30nDh8p0CfW18QqqUTXosdTcxDTv2Fuy8trYC4IOe7FVN2ljpGVlYsuYk2g7+EfUiZ2P+0qO6bwBGJBsLgIWCAjykfJI4fDIaH361XWgMPgKwDWVKBMLfV/trZgVdD2D1lnPKnkEX9M7DpWvxuHXHtiYA3le/RhHNKy/mZ/+RGxgyagWK1J+EER9twPEzsdLPQaQHFgANpo/rLLQX/H0Tpu/CDoFPdJwEaBtMJqBGpVDNxxd0HoDIynyuLk5C29iu3FSwzYFEtjn28nQR3mr3cca+3kK3sW/Hp2DK3H2o2n4G6nSdhZk/HeTrg2TTWAA0KBToiRmfdhYe5/6GQVp/SXAOgO0QnQfwOGnpWVi/TduiPADQokFxDIisrPn4Kzfu4vDJx+c8cFRsAqDIY62C6NmhAhrVLqrrOYDceRDPvbsGobW/5FwBslncDEijyLbl8WSvapi/9KjQOBev3MGbn2zC9HGWFwp7vgOwdN1p7Dssb4U1L08XFAnzRb3qheHp4SJt3IIS2Rr44PEo5OQg33Udtu76S+jTZGS78mhYqyg+mrRD8xgrNp157CuPIssb63n7/0FTPuyARj3nCs/BKYiU1EwsWXMSS9acRLUKoXimf00M7lEVAX7aHxkRycICIGDKhx2wfc9lXL5+V2icGT8dRNc25dC5VVmLjhNZDlj1HICPp+7UZVwPd2f061IZY0e1QLE8tlTVg8irgHfupuKvq3dQKiIgz6+x9FW8B5lMQLc25VA03BclivprXt9/xcaz+HBk83y/RmgCoI5vAPzjPFXDMeGd1nht7EarnO++o6dj8OqH6/HWp5vRq2NFPDugJprXL27VDEQP4iMAAX4+bvjhq+5S3lt++s1ViL1l2bvFIud11LcAUlIzMe+XI6jeYQa2/GG9267lSgbBx8tV8/H5vTqXkwOs3qp985/aVcP/t79851ZlNI9z+GT+exBcuhaveWtkwHp3AABgxND66NWxotXO96DUtEwsWH4MLfrNR6U20zBl7j7cTUxTkoWMjQVAUNN6ERgxtJ7wOLG3kvDcO2ssOsaeHwHo7c7dVEQ+u6hAz61lMJtNqKHT1sD7jlzH9ehEzWNHti3/yP9bi/x2IRR5/9/TwwXlS2lfrtdSJhPw05Qe6Na2nNXO+SinzsdhxEcbUKzBJIyesEVoCWUiS7EASPDp261RtUKI8DjLN57BguXHCvz1TmaBSYDZjj8JMCk5A0+NWmm1sqPX1sAit/+Bf170WzQsIfTK4srNeWcRKQDWmAD4MFcXJyz+prfFj970kJiUjgnTdqFkk6kYP+0Pq8xPIGIBkMDN1QnffxkJVxfte47f99L763DlRsHmFPAOwOMdORWDTb9ftMq5ROYB/HksKs/X7FZs0v76X4mi/v8opy7OZnRoXlrzeNv3XMadu4/eHMjWtgAuCDdXJ6z4rh8+GNFMlyWILZVwLw3vTNiKau2t+wiLjIkFQJKalcPw/qtNhce5m5iGp99cVaB3rrkSYMGsEnh/3hIiF7Hb8SmPLH7nL93GyXM3NY/bo/2/b/lHttP+GCB3c6BHv45oDxMAH8XJyYSPXmuO9d8PRERhP2U5HnTm4i20HfwjXhu7EWnpvBtA+mABkGj0C43RoKbYrmMAsOWPvzB13r7Hfp3QSoAGuQMAAOcvFWypXVEVSgfDW/JEwOWit/8fcbHv2KKM0N2qR21HfPn6Xdy0kwmAeWnbtBTO/PYiZozrjCrlxR/picrJyd2FsEH3OQW+K0hkCRYAiZydzVgwuYfQReC+t8dvwYmz+X/yE1oIyABzAO6z1vNUs9mEagJzQR61ip7I5j+B/h5oXLvYv/65n48bmjfQ/vrZJxO/hgAAIABJREFUozYHEp8AqO8KgAXl7uaM4QNr4diG57BzyVPo07kSnJ3V/po8fDIa9SPnYP8ReetmEAEsANKVigjAhNGthcdJTcvEk6+vyHftd84BKBhr3tYV+ST78EU07nYydh+8pnm8rq3L5Xnx6tZG++z3hHtp2Lbn8j/+mUgBqFEpVPlF9lGa1C2Gxd/0wuU/XsWYkc0QFOChLEv0zXto0X++0NLhRA+zvZ86B/DC4Dro1FL7+9b3HTwehU++znvBHM4BKJi2TUta7VwiKwIeeOgiunLzWaG/p8h2eV/ke7SvkO/Kg4/z8JsJ9jgBsKAKh/rgw5HNcWXXCMz+rCvqVi+sJEdySga6Pr2QdwJIGhYAHZhMwHfju0j5xPDJ179j7+Hrj/x33A3w8QqH+qB7O/HdGwtKZDJb3O1kXItK+N//L3L7383VCW2alMrz3xcJ80GNStrfWlix6cw/JqqKbAJk6wXgPk8PFzzdtwb2rRiGP1c/g+EDa0l53GeJhHtp6Dps4T++T4i0YgHQSeFQH8z8tIvwOJmZ2Rg04lfce8Q68NwMKH8mE/DV++3g5Wm9vQEqlS0ktBfB/fUAUlIzhTaQadu01GNXJhRZFOh6dCIOncjNejUqQWwCoMI3ALSqVSUcM8Z1xrU9I/H12I6oVkH7bpCWiolLQq/nlyjbGpocBwuAjnp2qID+XbXvwHbfhct38O7nW//1zwXWAYKjzwE0mYDxb7dG3y6VrHpeJycTqgrMIL+/IuCGHReQnJKheZyCXNzze0RQEPfXJxC5/e/h7owKpa23AqBsfj5ueOnJOjiyfjiOb3web7/QCMGBnrqfd9+RGxj39e+6n4ccGwuAzqZ90knKpjRff78f6x7aDpYrAT5auZJBWD1nAN56vpGS88uYCCiy+p/ZbEKX1o9f3a5GpTCULOav+Tz3M4oUgOoVbXMCoBaVyxXC+Ldb48quEfhxUne0alRC18WFPvl6p9AaEUTcDVBn/r7umPN5N7R74scCLe6Tl5wc4NnRq3F0/XMI9M+dW2DPbwH06lhR6qxqJ7MJYYW80ax+cTStG2H1ZWUfJLIi4IGjN5CVlYM1Apv/NKhZBGGFvAv0tV1al8XUefs1nefIqRj8dTXeoScAauHh7oxB3atiUPeq+OtqPOb9cgSzFx0S2s/hUTIys/HuZ79h+Xd9pY5LxsECYAVtmpTEi0/UwTfzDwiNcz06Ea+MWY8Fk3sAsO+3AP7zShOhSWi2TOSiFhOXhF/WnRR6pm7Js/1ubcprLgBA7iqLQisAOmABeFDJYv746LXmeP+Vplix6QymztuP7XsvP/7AAlqx6Qz+PBbl8P8dSR+Oce/NDnz2Thspi538tOI4Fq0+AYBvAdiqyuVC4O6mvVuPnZz3q58FYckOd80bFBfaHGjGTwcRffOe5uNFXpu0J87OZvTqWBHbFj2JTT8OlnrBFilwZGwsAFbi6eGCBZN7wEXC887n312La1EJfAvARrk4m4V2hxR5rlu2RKBFk+pcnM3o2EL7mhUiWd3dnFGpbCHNx9urNk1KYt+KYfj83TZwcxXfQGzR6hNIfMRbQkSPwwJgRbWrhmP0i42Fx4lPSMXTb60SWshF9RwAR1ersprHGz07Wr7mgejbAFpVrxgqpRDbI7PZhDeGN8SuZUMRGuwlNFZqWibWb3v0Bk1E+THmT59C77/aTMrtv007L2LXn9qXic1iAdCVqmeyWt7tF90cSCs+t859BLJzyVMoHOojNM767RckJSIjYQGwMhdnM36c1B0e7uLzL1PTMjUfyzsA+lLxbDskyAv1a1i+G6WvtxtaCGwOpBULQK6yJQPxy7TeQndD9hx69GqhRPlhAVCgQulgjHurldIMLAD6qlohRMrzXUt0a1tO86uh3QRWBdSKBeBvDWsVxTP9a2o+/vSFOKvtekmOgwVAkRFD66N9s9LKzs9JgPpydXFC5XLW3VNeZGnf7u3KC80psZRRJwDmZ9SzDTUfm52dgyvX70pMQ0bAAqCIyQTM/qwrAvy0v4Ilgq8B6s+an3C9PF3Qpon2XQ+LhPmgZmXr5a1WIcSwEwDzUrp4gNDW1bfiUySmISPgT6BCRcJ8MHlMeyXnVr0QkBGIrAhoqfbNSgutPQAAkRasHyBKxe3/69GJWLD8GCZM24WvZu/F6i3nkJKqfR6NHooX1V4ARPaOIGPiSoCKPdGzGlZtOYcla05a9bycA6A/a04EFLn9/78x2pXHmK+2S0jzeNYsAJeuxWPUx5uwfOOZf33f+3i54pWn6uHdl5pYddfIvCTe0/4+v4uz9d/kIPvGOwA24Nv/dizw2u2yOPJmQLbCWre5nZxM6NRS+2I+91WvGCq0OZAlrFUAtu25jJqdvsOy9acfWXoTk9Ix7pvf0aT3PKEVDWVITErHqfPaF1by9cl/+2eih7EA2IDgQE/M+7KbVSdh8Q6A/qw10a1p3QhpW9B2baP/YwA3V+tMkDx57iYin1mE+ITUx37t4ZPRaNbne1yNStA9V15WbDyDtHTtM/mLhonvOkrGwgJgI9o3K41n+tey2vk4B8A6rPFJN7KdvFf4ulmhAFSz0gqAL3+wHgn30gr89ecu3UaLfvNx8codHVM9WnpGFj6avEPz8UEBHv/bJZSooFgAbMhX77dD2RKBVjkX7wBYhzXmAci8aDerX1z3N1NqW+G/ydHTMfht9yWLj7t45Q7qdptt9ZX1Ppi4Decv3dZ8fMNaRSWmIaNgAbAhXp4umPdlpFX2succAOvQ+w5A1QohKBURIG080c2BCsIad0XWb9N+Ab8dn4LOQ3/GW59utsrM+nm/HMGEabuExmhSJ0JSGjISFgAb06h2UbwxXPuCIAXFOwDWUb1iKJx1vN3dXeLt//tkvFGQH2sUANHb+NnZOfh8xm5Ubjsdv244Db2Wzfh8xm4Me2uV8DiqNnQi+8YCYIPGvt4C1SuG6noOzgGwDg93Z4u257WUHhfrTi3L6LaMce4KifpPjDRJmlF76Vo8ej63BDU7zcTi1SeRmSnnztnl63fR/dnFeOvTzcJlvFqFUF2/x8hxsQDYIFcXJ/w0pYfwwi754UqA1qPXM+8iYT66zDHw9nJFiwYlpI8L5D6ysMbOgzIfiwDAkVMx6PfyUhSpPwkjx27A7oPXNJWBMxdv4bWxG1GpzTSs2HRGSrbhA603eZgcCxcCslGVyhbC2Ndb4K1PN+syPu8AWE+tKmH4fukR6eNGttVv/f7IduWxYYf8iXDWev+/XbNSeOtT+ePG3krC5Dn7MHnOPvh4uaJZ/eKoW60wypcOQrmSgQjw84C/rzvc3ZwRn5CKW3eScenaXezcfwU79l7G3sPXpT5OCArwwFO9q8sbkAyFBcCGjXq2AdZsPYftey9LH1v1HICanb7TbeyQIC/UrhqOgZFVMKBbFatMqsyPXhc9ma///WvstuXw0vtrpT/7tsYbAEDu3ItWjUpg665Lup0jMSkda7aew5qt53Q7x+O89Vwjm1jB0JE5OWm/Y2U22/bqjHwEYMPMZhPmftENvt5u0sd25LcAYm8lYd2283jiteWo03WWkve6H1Szcpj0EuLn44YWDYpLHfNBhUP1ebxgzSWAZ37aRZefHVtRKiIAI56urzqGwwsK1j5nxS/Qtne8ZAGwcSWL+WPi+22lj6v6DoC1HD4ZjYY95uKvq/HKMnh6uKBcySCpY3ZsUUb3Z+myJxi6ujihSnnrbZFcungAls3oA08Px/uEbDIB0z7ppNtkTfpbpSrVNU8qLVm2muQ0crEA2IFh/WqiV8eKUsc0SgEAcu8I9H3pF6V/ZtmffPW8/f/3OeS+WlalfIjVL1itG5fE+u8HwsfLsdbJH/l0fbRrWkp1DEMICQ1HvYZNLD7OLyAYlWo01iGRPCwAdmLaJ50QGuwlbTyjTQI8cDQKS9edUnZ+mbfTXZzN6NC8tLTx8lKtgtzNgVRsAQwATetFYM3cAQ5TAprXL47xo1urjmEor735gcVzAXo+MQourrb9CIoFwE4UCvTEjE87SxtPz1cMbdXCVSeUnVvmxa9lwxLw99V3ud77urWVdxdAVQEAckvArmVDpT+KsbZyJYOwdHofq7xKSX+rUbse3nh3bIG/vlHrnmjRaaCOieRgAbAjkW3LY0gvOa/8FAqSs3ucPfnzWJSyc9eqHAazWc5EQGvc/v/fuSTOA7DWGwB5qVI+BAdWPyP9cZq1lCsZhK0/P4GgAG76o8LQZ1/GuC++gadX3ndinZyc0aXfixj+xpfSFqPSkyELgMiMbGcntf/JJn/YHsWL+AmPU7NymPAYql+vs9St+BRl5/b2cpWy0ZPJZJ0te+9rWjdCyuZALs5mVCmvfka0j5crlnzbGxNGt4aHu/3cBatVJRzbFj2JImE+qqMYWs++g7Fp52G8NPJtVK5aAz4+vnB1c88pHFEG7boPxbgZm9D36dE2//rffYYsAH4+7ppvgYcV8pacxjJ+Pm74cVIPoYtvyWL+UpYODQmSNyfBGgoFqr3r0VzCa3u1qoSjWLj19n13djajc6uywuPUr1nEZh47mUzAW883wtH1z6GtHUyk692pInYuGYLwELW/eyhXUHAIXnn9XSxdsx37T1zFrJVnY8d/txWDX/gI4cX0n5sjkyELgMkE1Kmm7XZknWqFJaexXJO6xfDqU/U0H//ykLpSVpCrV0P9fwtL1KteROn5n+wp/krQcwqWfX2mf03hMZ7uW0NCErnKlAjExh8GYcHkHihqxVJVUN5erpgxrjMWf9PbIV9lJPUMWQAAYGBkVU3HDepeRXISbca91UrTzPLypYLw0pN1pWTo16WytOfa1jAgsrLS8zeuU0zo1a2yJQLxhIQSYanm9YujZcMSmo8vXypI88+bNQyMrILz21/GtE86SXm8JkNk2/I4sm44hg+spdtyz0SGLQDD+tWweEZwh+alhX4RyuTu5ozl3/W1aNOToAAP/Dqzr7R3sSuWCbabdcgb1ymGbm2sN3kuLzPHd9H06MTN1Qlzv+im7Db6rAldEKzhEYq7mzPmfRlp8wvWuLk64flBtXFu+8uYNaGLsjcWGtUuik0/Drb4Z5tIC8MWAFcXJyyb0afAr1OVigjA/K+665zKMsXCffH7L0+hdeOSj/3ayuUKYeeSp1CxjNxtQ6d82EHp610FUSTMBwun9rSJT1LFi/hh7bwBFq3p4OHujIVf90LjOsV0TJa/UhEBWDN3gEXzKDw9XLD4m15oUFPtoxdLuDibMaxfTRxY9QyOb3webz7XEIVD9Z145+bqhN6dKmL74iH4Y+lQtGny+J9nIhkMWwCA3Ivi7l+HomqF/Jcnbd24JHb/OlT5JLJHCQ/xxqYfB2Pp9D5o3bjkP94PdnIyoXbVcEz7pBMOrR0u/eIPAF6eLvht4ZPo07mS9LFlaFynGPb8+rRNPeOtXTUc+1YOK9DkujrVwvHH0qHobsVX//JSr3ph7Fs5rECLENWrXhi7lg216hsLslUuVwifvdMGV3aNwP6Vz2DC6NZo36y0lM13vDxd0K1tOUz7pBOu730NS77tjWb1IiSkJio425iWq1CF0sE4tGY4Fq46jsVrTuLg8WjEJ6SiUKAnGtYqisE9qqJjizKqY+bLZAJ6dqiAnh0qIDUtE1dvJAAAwkK8rbL6mY+XKxZ/0wu/P1UPc5ccxs59V3AtOgEpqZm6n/thbq5OCCvkjXo1imBQ9yro1ka/LXNFRBT2w+o5/bHvyA3MX3oEv++/iis37iIjMxtFw3zRoGYR9O9WGe2alrap/CWK+mPd9wOx59B1/LDs6P9yZ2Zlo1i4LxrULIoB3SqjTZNSNpVbhJOTCXWqhaNOtXC89XwjZGRm4+S5mzhz4RbOXLyFU+fjcPl6PO4lZSAxKQ3xCalITsmAp4cLPNxdEODnjhJF/RFR2BfVKoaiTtXCqFYxhIv5kHKGLwBA7g/4oO5VMai77U5UKih3N2eULSn+vrkWTeoWQ5O66m5T26N61QujXnX7epsCABrULGJXt/ZlcnE2o3rFUFSvGKo6CpEQQz8CICIiMioWACIiIgNiASAiIjIgFgAiIiIDYgEgIiIyIBYAIiIiA2IBICIiMiAWACIiIgNiASAiIjIgFgAiIiIDYgEgIiIyIBYAIiIiA+JmQERERAUUdzMGP82fhW1bNuDKpYtIS08PCQ4tiio1m6JV1ydQJOLx23zbChYAIiKiAljy8/cY99FopCQnP/iPTVFXLyDq6gVsWf0DOvR6Fn2ffhtms+1v98xHAERERI8xd+ZUvP/2qw9f/P8hOzsLa5dMx8zPX0dOTo4V02nDAkBERJSPQ3/uxefjPijw1+/a+it+W7tAx0Ry2PUjgC+/24NFq0+qjkFEZLeSUzJUR7B5X302FtnZ2RYds2z+l2jatg9cXN10SiXOrgvA7oPXVEcgIiIHFhsThf17/rD4uIT4Wzhx+A/UqNdKh1Ry8BEAERFRHk4cO6z5ef5fZ49ITiMXCwAREVEebt+K03xswh3tx1oDCwAREVEesrKyNB+bna39WGtgASAiIjIgFgAiIiIDYgEgIiIyIOUFwN/fX3UEIiLSICAgUHUEEqC8AJQqbT8bJxAR0d9Kl+Hvb3umvAC079AZJpNJdQwiIrJQ+45dVEcgAcoLQOky5dC5a3fVMYiIyAKlSpdFl649VMcgAcoLAAB8Mn4iChcpqjoGEREVgJubO6Z88x1cXFxURyEBNlEAQkJCsXjpas4HICKycX7+/vh+wRLUrlNPdRQSZBMFAMh9FLBx6x948+3/ICy8sOo4RET0AF9fXzwxZBi2/f4nmrdorToOSWBTuwF6eXnj9TffxWtvvIPz587g+rVrSExMUB2LiMiw3D08EB5eGOXLV4SLq6vqOCSRTRWA+0wmE8qWq4Cy5SqojkJEROSQbOYRABEREVkPCwAREZEBsQAQEREZEAsAERGRAbEAEBERGRALABERkQGxABARERkQCwAREZEBsQAQEREZEAsAERGRAbEAEBERGRALABERkQGxABARERkQCwAREZEBsQAQEREZEAsAERGRAbEAEBERGRALABERkQGxABARERkQCwAREZEBsQAQEREZEAsAERGRAbEAEBERGZCz6gB5uXjxPGKio5CRkaE6CtkZZ2dnhIaGoVTpsjCZTKrj/E9WVhbOnzuLmzdjkJ2drToOUYGYzWYEB4egTNlycHa22UsGaWBTf5vJyUn4bvrX+GH+HFy/dlV1HLJzYWHh6D9oCF58eSR8fHyV5YiLu4nJEydg6S8Lcef2bWU5iET4BwSgR8++GDlqNEJCQlXHIQls5hHAxYvn0b51E4wf9xEv/iRFdHQUJn05Hq2b18epkyeUZNi75w+0aFwbs2Z+y4s/2bX4O3cwd/YMNG9cC7/v3KY6DklgEwXg5s1Y9O3ZGefPnVEdhRzQ1SuX0at7e1y+/JdVz3vi+FEM7Nsdt27FWfW8RHqKv3MHg/v3xKGDB1RHIUE2UQDeG/06P/WTru7cvo233xhhtfNlZ2djxEvPIjk5yWrnJLKWtLRUvPzCMM7RsnPKC8DFC+eweuWvqmOQAWz/bTMOH/rTKufasG41Tpw4ZpVzEalw8cI5rFm9XHUMEqC8AGxYvwY5OTmqY5BBrF+32qHOQ6TShrX8PrdnygvA+XNnVUcgA7lw3jrfb5zPQkZw3ko/T6QP5QXg7t141RHIQKw1Ez8tNdUq5yFSKSUlRXUEEqC8ABA5otDwcNURiHQXHl5YdQQSwAJApIPGTZqrjkCkuyZN+X1uz1gAiHTQq88AeHh4qo5BpBs3N3f07jtQdQwSwAJApIPQ0DC89sZo1TGIdPPqyDdQpGgx1TFIAAsAkU5efnUUBgwaojoGkXQ9e/fHyFEsuPaOBYBIJyaTCRMnT8Mn4yfCPyBAdRwiYb5+fvjovxPw9bTZMJt5+bB3NrUboKUqFIpAkKe6Xd5IjYTUJByLse66/iKefuZ59O47EJs2rMHePbsQEx2FVL4mSHbCzc0NoWHhqFe/Idp36AJfPz/VkUgSuy4ArzbqgY7l6qmOQVa2+8pJDFz0ieoYFvH19UWvPgPQq88A1VGIiADwEQAREZEhsQAQEREZEAsAERGRAbEAEBERGRALABERkQGxABARERkQCwAREZEBsQAQEREZEAsAERGRAbEAEBERGRALABERkQGxABARERkQCwAREZEBsQAQEREZEAsAERGRAbEAEBERGZCz6gBERrBn9+9Ysugn7Nu7G3FxscjJyVEdiajAgoNDUKduffTpNxCNmzRXHYckYQEg0lFiYgJGvDwc69asVB2FSLO78fG4cP4sFv38A9q174Qp38yCn7+/6lgkiI8AiHRy714ienRtx4s/OZSNG9YisktrJCQkqI5CglgAiHTy9hsjcOL4UdUxiKQ7c/oU3njtRdUxSBALAJEOThw/il+XLlIdg0g3q1Ysw6GDB1THIAEsAEQ6+HXpYk70I4f367LFqiOQABYAIh3wkxEZwaE/96uOQAJYAIh0cOfOLdURiHR3+xa/z+0ZCwCRDvz9A1VHINJdQCC/z+2ZGUCmlgOdnbmEAFFeqlavoToCke6qVuP3uT0zA4jVcmChkFDJUYgcR2T33qojEOmue88+qiOQADOAfVoOrFW7ruQoRI6jVu266NCpq+oYRLpp3aY96jdorDoGCTAD+EnLgT169pUchcixTJw0DaVKlVEdg0i6iOIlMOnrmapjkCAzgKWw8C5A7Tr10KlLpD6JiBxEQGAgVqzdws1TyKHUa9AIK9duRXBwIdVRSJAZQDaAPgCiCnJAWFg4Zs7+ESaTSddgRI4gOLgQflm+DnPnL0LHzt0QFBSsOhKRxQKDgtC+Q2fMmvsTlq/ahNDQMNWRSIL7U/mvAKgPYCGARnl9cd36DTHju/kIL1zEGtmIHEaHTl3/NycgPT0NKckpihMRFYyHpwdcXd1UxyAdPPgu31UATQB0AzAQQB03N/fCYWHh7jVq1UaPXv3Qrn0nfvInEuTq6sZfqESk3MMv8+cAWPH//8Ola7c+hMk0xuqpiIiISFdcCZCIiMiAWACIiIgMiAWAiIjIgFgAiIiIDIgFgIiIyIBYAIiIiAyIBYCIiMiAWACIiIgMiAWAiIjIgFgAiIiIDIgFgIiIyIBYAIiIiAyIBYCIiMiAWACIiIgM6OHtgIlIB+npadi5Yxv2792NqKgbSElJVh2JqEA8PDwRFhaOOvUaoFnzlnBzc1cdiSRhASDS2bJfFuLjse8j6sZ11VGIhISFhWP0ex+i34AnVEchCfgIgEhHY8e8i5eef5oXf3II0dFRGPnKc/jPO6NURyEJWACIdDJ39gxM+2aS6hhE0s3+bhpmTpuqOgYJYgEg0sHtW7fw6cdjVMcg0s1n4/+L2NgY1TFIwMMFwBnAUACbANwOL+Q1pkKZwujfuysW/jQfmZmZ1k9IZIeWLvkZiYkJqmMQ6SYp6R6WLFqgOgYJeLAAlAdwBMAcAG0ABADA3fh4bN+2Ba+9+jzatKiPixfOKYhJZF927vhNdQQi3e3czu9ze3a/AJQDsAtApfy++MzpU+jcoQUuXjyvezAie3aDk/7IAK5fv6Y6AgkwA3AC8AuAwIIcEH/nDoYPHYSsrCxdgxHZMzc3N9URiHTH73P7ZgYwEEBVSw46ceIYVvy6RJ9ERA6gRMnSqiMQ6a5kKX6f2zMzgP5aDly+jAWAKC/t2ndSHYFId/w+t29mALW1HHj0yCHJUYgcR+eu3VG2XAXVMYh0UyyiOCJ79FYdgwSYAQRrOTAu7qbkKESOw9nZGV9O+haurnxGSo7HxcUFk6bO4Pe3nbs/CdBinARIlL+69Rpg9vc/w8fHV3UUImm8vLwxc/aPaNS4meooJIgrARLpqE3bDtiyfS969x0Id3cP1XGINHNzc0ePnn2xefsedOjUVXUckoC7ARLprFhEcUz9dhYmfDEZx44exs3YWOTk5KiORVRghUJCULVaDXh5eauOQhKxABBZiaenF+o3aKw6BhERAD4CICIiMiQWACIiIgNiASAiIjIgFgAiIiIDYgEgIiIyIBYAIiIiA2IBICIiMiAWACIiIgNiASAiIjIgFgAiIiIDYgEgIiIyIBYAIiIiA2IBICIiMiAWACIiIgNiASAiIjIgZ9UBiIwiIz0dp06dQExMNFJTUlTHISoQN3d3hIaGoWKlynB1dVMdhyRiASDSWXR0FL764lMsX7YYCQkJquMQaeLt7YPIHr0w6s33EF64iOo4JAEfARDp6Ped29CyaR3MnzeLF3+ya/fuJWLBD/PQokltbNu6WXUckoAFgEgnx48dwZBBfRB/547qKETSJCQk4Kkn+uLPA/tURyFBLABEOsjKysLLLzyN5OQk1VGIpEtLS8VLzw1FRnq66igkgAWASAfr167CmdOnVMcg0s3ly39h1apfVccgASwARDpYv2616ghEutvA73O7xgJApIOLF86pjkCkuwvn+X1uz1gAiHSQlpamOgKR7lJTU1VHIAEsAEQ6CAsLVx2BSHeFuR6AXWMBINJBk2YtVEcg0h2/z+0bCwCRDnr1GQAvL2/VMYh04+7ugb79BqmOQQJYAIh0UKhQCN54+z3VMYh089oboxEWXlh1DBLAAkCkk+dfHIEnn3pGdQwi6foPfBKvjHhDdQwSxAJApKMJX0zBF199g6CgYNVRiIQFBAbi088m4asp02EymVTHIUHcDZBIZ4OeGIoevfpiy6YN2L9vN2JjY5Cdna06FlGBmM1mFCoUgjp1G6B12/bw9vZRHYkkYQEgsgJPTy90jeyJrpE9VUchIgukC6zpYTY7SUwiHx8BEBER5SE2NlrzsR6etv0mEAsAERFRHmKjozQf684CQEREZJ8O7Nul+Vhff9ue/MsCQERE9AinThzDtauXNR9fuFggM+hRAAAR/UlEQVQZiWnkYwEgIiJ6hGWLfxQ6PqxoSUlJ9MECQERE9JBrVy9j0YK5mo8PCS/ORwBERET2JDs7Gx+//ybS07W/AlipRmOJifTBAkBERPSAqRPHYdvWDUJjVKnVVFIa/bAAEBER/b85M6Zg+tQvhMbw8PRGjfqtJSXSD1cCJCIiw0tJTsZH772O5Ut/Fh6rbtPOcHVzl5BKXywARERkWFmZmVi6+EdMnfgpbgqs+nefyWRCm25DJCTTHwsAEREZQk5ODm7FxSI2JhpXr1zC9q0b8dvmdbhz+5a0c1Sr2xIlylSRNp6eWACIiMhu9e3WSnWE/zGZTOgxeKTqGAXGSYBEREQSNGvfD6XK11Ado8BYAIiIiAT5+AWi79OjVcewCAsAERGRAJPJhGGvfQYfv0DVUSzCOQBEVrBj+1YsXrgA+/ftRkx0NNLSUlVHIioQV1c3hIaFoW7dBujTbxBatGqjOpLN6dTnedRq2E51DIuxABDp6G58PF5+4Wls3rRedRQiTdLT03D1ymVcvXIZy5YuQotWbfDNtLkIDApSHc0m1GrYFr2felN1DE34CIBIJwkJCYjs0poXf3Io27ZuRrfOrRF/547qKMpVqNYAL737LZyc7POzNAsAkU7eGvUyzpw+pToGkXQXzp/F6yNfUB1Dqco1m+D1sXPg4uqmOopmLABEOjh29DBWLl+qOgaRbtatWYkD+/eqjqFE8w798cbH8+Hu4a06ihAWACIdLPtlEXJyclTHINLV8mWLVUewKhdXNwx6/kMMe+0zODnb523/B9n/n4DIBh05fFB1BCLdGen7vEK1BnjqlXEoHFFGdRRpWACIdBAff1t1BCLd3YqLUx1Bd8EhRdD7qTfRsFUPmEwm1XGkYgEg0oG/v30tCEKkRVBwsOoIuikcUQad+jyPxq16OsTt/kdxzD8VkWLVa9TC7l07Vccg0lX1GrVUR5AqOLQoatZvg8ZtetrVmv5asQAQ6aB7zz6Y/u1k1TGIdBXZvbfqCBYxmUzw9PKFh6c33Dy8UCisGMKLlkaREuVQoWoDhIRHqI5oVSwARDqoXqMWunTrgdUrf1UdhUgX7dp3Qt36DVXHwIdTVhri07oe+BogkU6+mPgNypQtrzoGkXQlS5bGV1NmqI5BglgAiHTi5++PlWu2oHlLbp5CjqNJ0xZYuW4r9wJwAHwEQKSjgMBALFyyEls3b8SihT9g397duBkbg6ysLNXRiArEbDYjJCQUderl7gbYrn0n1ZFIEhYAIito1aYdWrWxv+1Cichx8REAERGRAbEAEBERGRALABERkQGxABARERkQCwAREZEBsQAQEREZEAsAERGRAbEAEBERGRALABERkQGxABARERkQCwAREZEBsQAQEREZEAsAERGRAbEAEBERGRALABERkQGxABARERmQs+oAImbtX4vVp/eojkFWdis5QXUEi6WmpmDb1s3Yt3c3YmKikZGRrjoSUYG4uLgiJCQUderWR6s27eDh4ak6Ekli1wXg4I1zqiMQPdbCn+bj04/HIDY2RnUUIiHBwYXw9rtjMPjJp1VHIQn4CIBIR/95ZxRee/V5XvzJIcTF3cSbr7+MN19/GTk5OarjkCAWACKdfDf9a8z+bprqGETS/Th/Dr79+ivVMUgQCwCRDuLibuKz8f9VHYNIN19+Ng7R0VGqY5AAFgAiHSxd/DPu3UtUHYNINykpyViyaIHqGCSABYBIB7/v3KY6ApHuft+xTXUEEsACQKSDqKgbqiMQ6e769WuqI5AA5QXAz89fdQQyEP+AAKucx83NzSrnIVLJ3d1ddQQSoLwAlCxVWnUEMpBSpcpY5TwlrXQeIpVKleb3uT1TXgDate+kOgIZSLsOna1ynvZWOg+RSvw+t2/KC0C58hXRoVNX1THIABo2aoo6detb5VydukSiXPmKVjkXkQoRxUugW2Qv1TFIgPICAADjP5+MsPDCqmOQA/Pz98cXk76x2vmcnJww9dtZXDedHJKLiwsmTZ0BF1dX1VFIgE0UgNDQMPy8eCUiipdQHYUcUFhYOBYuWWW15//3VateE3PnL4Svn59Vz0ukJx8fX8yZvwgNGzVVHYUE2UQBAIAKFSth02978OrINxEYFKQ6DjkAP39/PPv8y9i6Yz9q1KytJEPzlm2wbecBDBz8FLy8vJVkIJLBw8MT/QY8ga079qFN2w6q45AEJgCad3SIikuWGOVvWVlZOHniGG7cuI70tDRdzkGOy8XVFeHhhVG5SjU4O9vOhpdpaak4fuwobsbGICMjQ3UcogJxdnZGoZBQVKlaDe7uHrqco1O7Zjh08ICmYz+cshKlyteQnMh+PNk+QvOxtvPb8QFOTk6oWq0GqlYz7l8qOR43N3fUrlNPdQwiIgA29AiAiIiIrIcFgIiIyIBYAIiIiAyIBYCIiMiAWACIiIgMiAWAiIjIgFgAiIiIDIgFgIiIyIBYAIiIiAyIBYCIiMiAWACIiIgMiAWAiIjIgFgAiIiIDIgFgIiIyIBYAIiIiAzIWXWAR8nKysLJE8cQFXUDaampquMQERmWs7MzgguFoGq16nB391AdhySyqQKQcPcuvp7yJRb8OBe3b91SHYeIiP6fh4cnunTrgTff/g+KRRRXHYcksJlHAKdPnUSblg0wdfIXvPgTEdmYlJRkLFm0AK2a1cOmjetUxyEJzABytB6ck6P50H+Ijo7CgL7dcPXKZSnjERGRPu7dS8SwIf2xe9dOaWOaTCbNx8q6DtkjwT97jhlAstajU1I0H/oPo994FdFRN6SMRURE+srIyMDIV55DenqalPFE5hakp6VIyWCP0lKTRA6/ZwaQoPnoe/dETg4AOHvmFDasXyM8DhERWc+Vy5ewcvlSKWN5e3trPjYlWegiaNdSkoSuwQlCBSAx4a7IyQEAGzesFR6DiIisT9bvby8vkQKQKCWDPUpJFioAiWYAmv/rXbr0l8jJAQAXL5wXHoOIiKzv4vlzUsbxErgDEBtl3Lljgn/2BDOAm1qPPnf2tMjJAQDp6enCYxARkfWlpsmZAxAWFq752BtXjPsh8sYVoQJ20wxA81X87BnxAhAeXlh4DCIisr4iRYpKGadUmbKajxW8CNq162J/9tNmAGe0Hr139x8iJwcANGnWQngMIiKyvqbNW0oZp1SpMpqPvXbpLBLv3paSw96cObZX5PDTZgCntB598eJ5XLl8SSQAGjdpjtJlygmNQURE1uXh4YnefQdKGaukQAHIycnGqSO7peSwJ7FRlxEbdUVkiFNCBQAAdmzfKnI4nJ2d8cn4L+Hk5CQ0DhERWc8bb78n9Oz+Qb6+vogoXkLz8cf+3C4lhz05dkD4z3z6/iRAzQ/zlyz+STQEmrdojXETvmIJICKyA08MGYYXXhopdcwGDZtoPnb/zjWGWxDojy3LRA4/gf9r796DorzOOI5/NSCggKICUZqo3LyOBe94v9Zp02q9NaltGpvYTDp1ppPWjn+kbeLYzmhbYxybtE0mRgdNGpISbzgxQR1Rifc4RrRV1KgIiqgILOzq6vaPF1oGubnn3WXH/X1mdkZ23/c5z/jPe855zzkP3KirBZDrbZRDB/Jt2Q3wkwULeT9rMymp/YxjiYiI/WJj4/jLqrf408o1Rsf3NiZjtPcdgGpHJUf2BU99gpKicxSePmYSIhf+Xw0wF1jkbaQNme+xdNkKk2QAGD9hMrv3HuaL/L3s27uH4itFOJ3B1asTEQkkoSGhxMU/zoiRGUycPJWIiI4+aSdjzDij+3fmbGD0lNk2ZRPYdm3LNA2xE6CuC9cZKMPL8sARER05cLSAuLh406RERCRIjRkxmPPnvd/Xv2T5BwxMH2NjRoGn/GYpixeM5Y7L6W0IN9CN2oOAAG4Du72NVlNTzZtrXvf2dhEREWbNfdro/uzMlTZlEri2/vNNk4c/WKP/CrDKAddZZxJx/dp3OFd4xiSEiIgEsdlzfmB0/9mCIxzKe3SLyxVfKmT39o2mYdbV/aN+ByAbKPc2osvlZPHLi4K6NrOIiHgvMSmFb6YNMYqR+dbvcVSZF6oLNB7PfdauXoL7rtHx+beBzXV/1N935wb6AMO8jVxUdInYuHjS0od6n56IiAQtj8fD5595v6Lf5aymoryMoaOn25hV28vdso7dOcaj//eo1wFouI8jDTjWyPetFhYWzuacXONenIiIBB+Xy8nwtH5cv15qFGfhr/7M+OlmawoCxbl/f8kfF88zHf17sJ7xJ+q+aN/gguPAFpMWXC4nC386n5s3bpiEERGRIBQWFs4LP/u5cZz1f/0tX5/9yoaM2lZFeRlrlr1k+vAH2ES9hz80PtJPB4428VurpQ8ZRlZ2DpGRUSZhREQkyJTfusWwtL44HFVGcTrHxPLKyo95PKGPTZn5V7WjkuVLnrGjI+MBhmAN8v+nsbN3r9Ze2NektaslxRzI38fMWXMJDe1gEkpERIJIeEQEbvdd8vfnGcVxOas5un8Hw8Z+m46R0TZl5x93XDWs/N0Czpmd+FdnE7C64ZdNjfIHYa0FCDVtdeSoMazLzKJLTIxpKBERCRJOZw3jMtIpumxU8Q6A7vHf4Nd/WE/Ckyk2ZOZ7VRW3eGPpQs6cPGxHuDtYg/qChj80VX2nFOgIeH84c60rRZfJ2bqJyVOmEdO1m2k4EREJAiEhofTo0ZOtW4yK3gBQ7ahgf242vZIHEt+zt3lyPlRaconlS37IxcKTdoVcDnzY2A/Nld/LB54Bupq2Xl5+i0+ys+jTJ0nFfkREpFX69uvP4YNfcPHiBeNYbvcdDuZtJSQklJSBQ20vZmSHQ3k5rHr1eW6WldgVshCYj7XN/wEt/Q98C9hhVyYAP3p2Aa8tW6HFgSIi0qKS4itMGj+c2+Ven1P3gP6DM3jxN6/TLS7Btpgmaqqr2Pi318j7LMvOsB6sZ3iT1X6bmwEAOAfEAKPsyuirE8fJ+mADkVFRDBw0mPbtG+5EFBERsURFRZOYmMyWTf+yLWbZtSJ2b9+Is7qKpP5DCGmjheoej4f9O7N549UXOFNgy/v++lYBf2/ugpY6AGAVDpgCPGFHRgAORxWf79jOztwddO8eS2JSSkBOx4iISNtLSe1H0eVLFJw80fLFrXTvnpszBUfI37WJDmHhJPRK5bEQrwriPjSP5z5H8z/lHyt+yc5tmbic1XY3sQ94Frjf3EWtfeomYO0KiDNMqlFJyam8+NIiZsyco90CIiLyAKezhtkzpvPlsSM+iR/dpRtTZzzH2Gnz6O6jVwOOynIO7NnKjk/e5WrReZ+0AVzDWvVf3NKFDzPsngh8CoR5l1PLQjt0YNKkqXx3xizGjptIj56B8X5GRETaXmnpNZ6aPsGWrYFNadeuHckDhjJqwvcYkD7WeOvgzevFnDqez6G9OZw8mofbfdemTBvlBKYDrTpA4WHn3b8PfAT4ZZ6kd+9Eho/MIDkllcTEZBKTUoiKiiI6ujOdIiMJ8dN0jYiIBIbTpwqY+dQUKisr/NJedJdu9B00koReqfR4IpH4hD5ERsXQKTKasPCOtGvfHmeNgxpHJdWOCq5d+ZqrVy5QfOksZ08dobTEd52VBtzAXOoV+2mJNy/efwys58E6AiIiIuJ/HmAhsPZhbmrNIsCGTgBlwHcwrBcgIiIiRjzAL4B3HvZGkwf4HGADEG4QQ0RERLzjAp4H3vfmZtMR/Gis8sE641dERMR/bgGzgD3eBrBjCn8gVicg0YZYIiIi0rxCYAZw2iSIHQv5CoA0INOGWCIiItK0j4DhGD78wf5FfPOAt4EuNscVEREJZpVYi/1sG2x7swugOaeAj4EkINXm2CIiIsFoG9Y5PF6/72+ML7fxTQVWAwN82IaIiMijqhB4GasDYDu7ZwDqOw+8C1QAg4FIH7YlIiLyqLgGLAWew4Z3/U3x10E+YcDTwCvo1YCIiEhjLmDNnL8N1Pi6MX+f5PcY1lnFC4Bp+HYGQkREJNC5gVxgHdYaunv+argtj/KNx5oVmA+MaONcRERE/MUDHMQ6we9DoLQtkgiUh24sMAoYg7V4cAiBk5uIiIip81gj/f3ALqCobdMJ3IdsV6Af0BdIqf08CXSq/XQGovBTWWIREZEmuLH26N8GHEAVcBk4C5wB/lP7udlWCTblv9hWkDLGZZfsAAAAAElFTkSuQmCC;" vertex="1" parent="1">
          <mxGeometry x="320" y="320" width="120" height="120" as="geometry" />
        </mxCell>
        <mxCell id="QVymqVo6n4Ka5hsR-ZMD-7" style="edgeStyle=orthogonalEdgeStyle;rounded=0;orthogonalLoop=1;jettySize=auto;html=1;entryX=0;entryY=0.5;entryDx=0;entryDy=0;entryPerimeter=0;" edge="1" parent="1" source="QVymqVo6n4Ka5hsR-ZMD-2" target="QVymqVo6n4Ka5hsR-ZMD-3">
          <mxGeometry relative="1" as="geometry" />
        </mxCell>
        <mxCell id="QVymqVo6n4Ka5hsR-ZMD-2" value="" style="sketch=0;points=[[0,0,0],[0.25,0,0],[0.5,0,0],[0.75,0,0],[1,0,0],[0,1,0],[0.25,1,0],[0.5,1,0],[0.75,1,0],[1,1,0],[0,0.25,0],[0,0.5,0],[0,0.75,0],[1,0.25,0],[1,0.5,0],[1,0.75,0]];outlineConnect=0;fontColor=#232F3E;gradientColor=#F78E04;gradientDirection=north;fillColor=#D05C17;strokeColor=#ffffff;dashed=0;verticalLabelPosition=bottom;verticalAlign=top;align=center;html=1;fontSize=12;fontStyle=0;aspect=fixed;shape=mxgraph.aws4.resourceIcon;resIcon=mxgraph.aws4.compute;" vertex="1" parent="1">
          <mxGeometry x="560" y="320" width="120" height="120" as="geometry" />
        </mxCell>
        <mxCell id="QVymqVo6n4Ka5hsR-ZMD-25" style="edgeStyle=orthogonalEdgeStyle;rounded=0;orthogonalLoop=1;jettySize=auto;html=1;exitX=0.75;exitY=1;exitDx=0;exitDy=0;exitPerimeter=0;entryX=0.75;entryY=0;entryDx=0;entryDy=0;entryPerimeter=0;" edge="1" parent="1" source="QVymqVo6n4Ka5hsR-ZMD-3" target="QVymqVo6n4Ka5hsR-ZMD-24">
          <mxGeometry relative="1" as="geometry" />
        </mxCell>
        <mxCell id="QVymqVo6n4Ka5hsR-ZMD-3" value="" style="sketch=0;points=[[0,0,0],[0.25,0,0],[0.5,0,0],[0.75,0,0],[1,0,0],[0,1,0],[0.25,1,0],[0.5,1,0],[0.75,1,0],[1,1,0],[0,0.25,0],[0,0.5,0],[0,0.75,0],[1,0.25,0],[1,0.5,0],[1,0.75,0]];outlineConnect=0;fontColor=#232F3E;gradientColor=#60A337;gradientDirection=north;fillColor=#277116;strokeColor=#ffffff;dashed=0;verticalLabelPosition=bottom;verticalAlign=top;align=center;html=1;fontSize=12;fontStyle=0;aspect=fixed;shape=mxgraph.aws4.resourceIcon;resIcon=mxgraph.aws4.s3;" vertex="1" parent="1">
          <mxGeometry x="800" y="320" width="120" height="120" as="geometry" />
        </mxCell>
        <mxCell id="QVymqVo6n4Ka5hsR-ZMD-22" style="edgeStyle=orthogonalEdgeStyle;rounded=1;orthogonalLoop=1;jettySize=auto;html=1;exitX=1;exitY=0.5;exitDx=0;exitDy=0;exitPerimeter=0;entryX=0.25;entryY=1;entryDx=0;entryDy=0;entryPerimeter=0;" edge="1" parent="1" source="QVymqVo6n4Ka5hsR-ZMD-4" target="QVymqVo6n4Ka5hsR-ZMD-3">
          <mxGeometry relative="1" as="geometry" />
        </mxCell>
        <mxCell id="QVymqVo6n4Ka5hsR-ZMD-4" value="" style="sketch=0;points=[[0,0,0],[0.25,0,0],[0.5,0,0],[0.75,0,0],[1,0,0],[0,1,0],[0.25,1,0],[0.5,1,0],[0.75,1,0],[1,1,0],[0,0.25,0],[0,0.5,0],[0,0.75,0],[1,0.25,0],[1,0.5,0],[1,0.75,0]];outlineConnect=0;fontColor=#232F3E;gradientColor=#F78E04;gradientDirection=north;fillColor=#D05C17;strokeColor=#ffffff;dashed=0;verticalLabelPosition=bottom;verticalAlign=top;align=center;html=1;fontSize=12;fontStyle=0;aspect=fixed;shape=mxgraph.aws4.resourceIcon;resIcon=mxgraph.aws4.compute;" vertex="1" parent="1">
          <mxGeometry x="560" y="520" width="120" height="120" as="geometry" />
        </mxCell>
        <mxCell id="QVymqVo6n4Ka5hsR-ZMD-6" value="&lt;b&gt;Scrape News&lt;br&gt;Websites&lt;br&gt;&lt;/b&gt;" style="text;html=1;align=center;verticalAlign=middle;resizable=0;points=[];autosize=1;strokeColor=none;fillColor=none;" vertex="1" parent="1">
          <mxGeometry x="450" y="380" width="100" height="40" as="geometry" />
        </mxCell>
        <mxCell id="QVymqVo6n4Ka5hsR-ZMD-8" value="&lt;b&gt;Store Formatted&lt;br&gt;News&lt;br&gt;&lt;/b&gt;" style="text;html=1;align=center;verticalAlign=middle;resizable=0;points=[];autosize=1;strokeColor=none;fillColor=none;" vertex="1" parent="1">
          <mxGeometry x="680" y="380" width="120" height="40" as="geometry" />
        </mxCell>
        <mxCell id="QVymqVo6n4Ka5hsR-ZMD-9" value="&lt;b&gt;News Websites&lt;/b&gt;" style="text;html=1;align=center;verticalAlign=middle;resizable=0;points=[];autosize=1;strokeColor=none;fillColor=none;" vertex="1" parent="1">
          <mxGeometry x="325" y="290" width="110" height="30" as="geometry" />
        </mxCell>
        <mxCell id="QVymqVo6n4Ka5hsR-ZMD-10" value="&lt;b&gt;Web Scraper (Golang)&lt;/b&gt;" style="text;html=1;align=center;verticalAlign=middle;resizable=0;points=[];autosize=1;strokeColor=none;fillColor=none;" vertex="1" parent="1">
          <mxGeometry x="545" y="290" width="150" height="30" as="geometry" />
        </mxCell>
        <mxCell id="QVymqVo6n4Ka5hsR-ZMD-11" value="&lt;b&gt;Storage Service&lt;/b&gt;" style="text;html=1;align=center;verticalAlign=middle;resizable=0;points=[];autosize=1;strokeColor=none;fillColor=none;" vertex="1" parent="1">
          <mxGeometry x="805" y="290" width="110" height="30" as="geometry" />
        </mxCell>
        <mxCell id="QVymqVo6n4Ka5hsR-ZMD-15" style="edgeStyle=orthogonalEdgeStyle;rounded=0;orthogonalLoop=1;jettySize=auto;html=1;" edge="1" parent="1" source="QVymqVo6n4Ka5hsR-ZMD-14" target="QVymqVo6n4Ka5hsR-ZMD-4">
          <mxGeometry relative="1" as="geometry" />
        </mxCell>
        <mxCell id="QVymqVo6n4Ka5hsR-ZMD-14" value="" style="shape=image;verticalLabelPosition=bottom;labelBackgroundColor=default;verticalAlign=top;aspect=fixed;imageAspect=0;image=data:image/png,iVBORw0KGgoAAAANSUhEUgAAAgAAAAIACAYAAAD0eNT6AAAABHNCSVQICAgIfAhkiAAAAAlwSFlzAAAOxAAADsQBlSsOGwAAABl0RVh0U29mdHdhcmUAd3d3Lmlua3NjYXBlLm9yZ5vuPBoAACAASURBVHic7N13mFxneTf+73POtJ2Z7dqirt3ZlWXLTbaMTajCoeM4EERzLK0sUGJCT4GQvKAX+AUSeCkxEGKMLZuOIaGTAMaUYINtcF1b8pSVVm0lbS/Tz7l/f8gikixpp5wzz5Tv57p85Uoy85yvdnfmuc99nvMcgIiIiIiIiIiIiIiIiIiIiIiIiIiIiIiIiIiIiIiIiIiqhdIdgIhq03XRaEvANNutvGq3DavdUKpdAa22iFeJ8sBA85neJyJThlI5sdW8YciUWMYcVH7OCATGvrBy5WSl/x1EjYoFABGd0Y49e5akDWPQUOo8gRExgFUCWQHBMiisAhB04bAZAEehcEgJDgGSEFEJBSMuhp3wTU3tvXnjxpwLxyVqOCwAiBrc0MhIwLDtC21RG6DkUgguBXA+gHbd2c4gC4XHIfKoAI8ZYj4M5H9/2+DgMd3BiGoNCwCiBrNlz57lyvA+Syn5IwB/JMAGBXh05yqHADEl+C2U/NZQ6t65/v4H71TK0p2LqJqxACCqc2/Yt6/dm8+/QAleCKgXAtKvO1MFzCjIL2zgLojcdfvg4LDuQETVhgUAUR3aGo2uVzCvhbKvAdQVAEzdmfSSQwrG96Hke/M+3113rlyZ0p2ISDcWAER1Yig6chWUvAqQPwUwqDtPFUsC+LES9a2mbOrbn12/fl53ICIdWAAQ1bDticRqS+R1ENwAYK3uPDUoLYKfKqg7FrKp79y5fn1WdyCiSmEBQFRj3jw8HE75ml4nyt4OqKt056kfagIiX1SwP3/b4ODjutMQuY0FAFGNGHpy5FJR9g6lcB2AFt156tyvAbllwe//OtcLUL1iAUBUxXaKGIl4/FoF9S4FPFt3nkYjwDigPqdM9ZldfX1juvMQOYkFAFEV2nHoUDC7kBoShXcqYEB3HkIGUF+zDXz8jv7+R3SHIXICCwCiKnL9w2MhM7zwRgjeDWCp7jz0NCKCHygDH9gVidyvOwxROVgAEFWB66LRFi/Mt4iSdypgie48tCgRwQ/EVB+8o7//Pt1hiErBAoBIo83Dw75QIPBmiPpHQDp156GiCQT/YRt47x2RyJO6wxAVgwUAkQ4iaig28moo+TCAiO44VB4B8gbUrTmPsfNLa9Yc1p2HqBAsAIgqbCg6cpUo+yYFbNSdhZwlwLxS+NBCOv0JbipE1Y4FAFGFbN+/v8PO5N4vkLcAMHTnIfcIEFMKb98VifxQdxais2EBQOSynSLGvvjImwXyQQBtuvNQRX1bQd5228DAft1BiE7HAoDIRdtjsQELxucBeb7uLKTNLBTet6a//6adStm6wxCdwAKAyAU7777bs3fVqr+GYCeAgO48VBV+bRhq+639/Xt0ByECWAAQOW5oZGQdLPtLAC7XnYWqTkpE/e3tA32fhVKiOww1NhYARA7aGottUUp9FoKQ7ixUxRR+bOS8225dt+qQ7ijUuFgAEDng+lis24S6FcDLdWehmnFUKWy/LRL5vu4g1JhYABCVaSiReA5s+2uAWqY7C9UcUVA3eacn/+bmjRtzusNQY2EBQFQqETWUSLwNgo8C8OqOQzXtV0be+zpeEqBKYgFAVILrotEWnzJ2CfBK3VmobowpMV5322DfL3QHocbA3ciIinTDk0/2e5VxDyd/clivreyfbosl3qI7CDUGdgCIirA1FnuWgvoPAN26s1D9UlA3e6cn38J1AeQmFgBEBdoaTWxXSj4LwKc7CzUC+W+fUq+9ORKZ0Z2E6hMLAKICDMXj74bgI7pzUGMR4DGv2C+9ZXDwgO4sVH9YABCdw2YRMxRPfBrAX+rOQg1rr2Gol3ALYXIaCwCis3hrNOqfg/FlKPyZ7izU8I7ZhnrFHf399+kOQvWDdwEQncGOQ4eCczC+x8mfqkSXIfKzLbHYJt1BqH6wA0B0mh2HDgWzydR3AVytOwvRaZKGwrW3RiI/1R2Eah87AEQnuf7hsVAumfo+OPlTdQragu8PRRPX6A5CtY8dAKKnvHl4OJzyN/1YIM/UnYVoEWlD4Rp2Aqgc7AAQAdg8POxL+v3f5ORPNSJgC76z9cnEc3UHodrFAoAa3mYRM+QLfAVQL9adhagIQWXI926IxzfqDkK1iQUANbSdIkYwnvgiV/tTjWqxBD8aGhlZpzsI1R4WANTQRhKJjyng9bpzEJVKAUtg2z8cGhnp1Z2FagsLAGpY22Kxv1CCd+rOQVQ2QR8s+/tvHh4O645CtYMFADWkrfH4ywXqM7pzEDno8qQ/8PWdd9/t0R2EagMLAGo426LRy5TgGwBM3VmIHPayvStWfVR3CKoN3AeAGsqWJ57oNHy++yHo052FyC0i6o23D/Z/QXcOqm7sAFDD2Hn33R7T67uTkz/VO6Xk09ueHLlSdw6qbiwAqGHsXbHqowLwYSrUCAJi2N/inQF0LiwAqCFsi8VeC4V36M5BVEHLYdlf3izCtS50RiwAqO5tjUYjAvXvunMQafCCUCLxj7pDUHXiIkCqazseeMCbbWv7JaCu0p2FSBPbUHgxHxxEp2MHgOpatrX9Xzj5U4MzbMEdO/bsWaI7CFUXFgBUt7bG41dD4e26cxBVgaVZ03uL7hBUXXgJgOrSjni8NSt4BMAq3VmIqoVAtt4+MHCH7hxUHdgBoLqUFXwSnPyJTqGg/nV7IrFadw6qDiwAqO5si8dfAWBIdw6iKtRqWfJ5iLD7SywAqL7csHt3swg+pzsHUdVSeOFQbOTPdccg/VgAUF0Rj+9DAJbrzkFU1RQ+sS0a7dIdg/RiAUB1Y2ssdrlA/kp3DqLqJ52iTD41sMGxAKC6cHy7U/U58BG/RAWSLUPR6PN1pyB9WABQXQglEm9SwEbdOYhqiAKMT/JZAY2LK0HprLbFYivFMNYokRWw0SsGVgBoBdACUc2A3QQoQ4DMifcoYFYgkwbUpEDGodRB27ZHDI9nZFdf35gbOa+LRlu8yogC6HZjfKK6pnDjrkiEC2cbEAsAws677/aMrlp1qS3yTBG1QQHrobAOQIujB1JYAPAYBA9B4SFlGQ+uPrj3dzs3bcqXM+xQNP4RKLzboZREDUWA8ZzXs/Yrq1dP6c5ClcUCoAHtFDFGE4nLROQlotQLIdgIIKgjiwDzCvJrJeoXlqnuuqOv734oJYW+f2hkZA0s+wkAARdjEtU1UfjE7ZHIu3TnoMpiAdAgdjzwgDfb3v5CCDYDeBmqtl0uhwD1XSXGt+ezybvvXL8+e/aXitoWj39boP6kggGJ6lFaQdbeNjCwX3cQqhwWAHVuayz2LAX15wK8WgE19jQwNaGAL4utbtu1tu+hk/8/O0WMvfH4BwH1Xl3piOqJQG65fWDgTbpzUOWwAKhD1z88FjJC89cpUW+GwiW68zhBQT0ogm8KEFOG9EHwGgCX6c5FVC8EyJuGuvDW/v49urNQZXh0ByDnXB+LdZui3gW18JeAaq2n8k4gG6CwQR3/X4jIYQrw2Db+L4DX6c5ClVFHU0Tj+t+JH2+FpsV8RFQXbMNQF7AL0BjYAahh1z88FjKDC38L4O+g0KQ7DxHVPMOy5N0AbtAdhNzHDkAN2ixihmMj20TJBwH06s5DRHUlZxpq8Av9/ft0ByF3cSvgGrMlkbg4FEvcI0o+D07+ROQ8b962/0Z3CHIfOwA1YmhkJIC8/R4o/D0An+48RFTXkqbft/ILK1dO6g5C7mEHoAbckEhcoizr91B4Pzj5E5H7glY6O6Q7BLmLBUCV2xqLbbFtuUegztedhYgaiMLb+KTA+sa7AKrUjni8NSdyB7e5JSJNVgdjIy8H8F3dQcgd7ABUoaF4fDBr4zec/IlIJ6Vwo+4M5B4uAqwyQ4nEC2HL1wG0685CRA3PthX67ohERnUHIeexA1BFtkUTfw5bfgBO/kRUHQxTZIvuEOQOFgBVYlss8RZRcjsAr+4sREQniFI37BThXFGH+EutAkOxxAcEchP4+yCiaiPo2xuLPVd3DHIeJxzNhqLxnYD8H905iIjOShl8QmAdYgGg0bZo/J1Pbe5DRFS1BPiznXffzdvG6wwLAE22RhN/JQof152DiGgxClgysmL1C3TnIGexANBgKB5/mVLyKd05iIgKpQx5je4M5CwWABW2JRrdIIKvA+AWm0RUO0T9KbcGri8sACroht2jywxlfE8BYd1ZiBbTZBjo8noRMvg1QQAgneF4/ErdKcg5XNRRITvvvtuz15v7KgTLdWchZ/V6vXh+SwsuDDahy+uFVynMWhbi6TTun1/AffPzsHWHLFCX14MXtLRiYziEJZ7//XqYyOfx8EISP5mZwVgu53oOA8CV4TCuCIfQHwigxTSRE8GxXA6PJlP4+ewsjlQgBz3NywDcozsEOYNbAVfItlj8nwX4O905yDkepfCazg5c3dp6zlbaoWwWNx89hn2ZTMWyFUsBeGlbG67taIdPnf1rwQbwg6lpfHtqCraIK1lW+/3Y0d2NZb6z74lli+Cu2Vl8Y2ISeZdy0BkIHt41GLlUdwxyBguACtgWj79CBN8Ff951o8kw8I6lvVgbCBT0+qwIPj12BI8mky4nK82WriXY1NJS8Ovvn1/A544ccbyzcVEwiLf09pyzCDnZk+k0Pnl4DCm7VnosNU88Yq+6ZXDwgO4gVD5e3HPZliee6BTBLeDkXzeaDAPvKmLyBwCfUrixpxu93urb6XlTS0tRkz8AXBEO4U86nH1kxTKfFzf2dBc8+QPA2kAA71raiyauU6gUlVOKtwPWCX5qXGZ4/Z8B0KM7BzmjyTDw10uXYqCIyf/k975hSacLqUoXMgy8trOjpPe+vK0N3Q4WNNctWVLSRD4QCODvli3lYsUKUaKepzsDOYOfGBdti0avBeS1unOQM06c+UcC/pLHuCgYxEqfz8FU5XluSwv8JU6cHqXw/JZmR3Ks9vtxQVNTye9f4/fjHewEVIaBTbojkDP4aXHJDbt3N4tSn9Wdg5xxYvIv5cz/dJeGQg4kcsYzm8u7I9Wpf8uGULDsMQZ4OaAyBH3bE4nVumNQ+fhJcYl4PO8H1DLdOah85bT9z2TFOVa3V1Kv11t2N6LH64WniGv2Z7Pcoa4ILwdUhmWBTwesA/yUuOD6J/eeL1Bv052DyudE2/90YbM6NlN7Rrj8/agMAKYDy1udnLB5OaACFK7QHYHKx0+IC0wj/wkA1XGaRyVz+sz/hHmrOm5Z2xguv32fF0HOgdvwFxz+mbAT4DabBUAd4KfDYTfE488G1It156DyuHHmf8LBbNbxMYvlRPsfAEYzWUc2BDrgws+EnQA3qQ1vjUad/3BQRfGT4TBb5EO6M1B5nFzwdyYPJRdcGbcYVzjQ/geAx1MpR8Z5yKUNkrgw0DX+WaUu1B2CysNPhYO2RhMvAniPbC1zq+1/wmPJFEYz+jsAz3Cg/Q8A983POzLOvkwGww4VE6fj5QCXiMEtgWscPxEOUgp/rzsDlc7Ntj8ApGwbXx4fd2XsYvR6vVjhQPt/LJfDfgdb918+No60S1v68nKA85QhF+jOQOXhp8Eh26LRywB5vu4cVBq32/6WCG4+erQiT9JbjBOr/4HjzwNw0uFcDv9+9Cgslx7uw8sBDhPFAqDG8ZPgENsw3qk7A5XG7ba/JYJ/O3IUDy1Ux4OArnCo/X+/Q+3/kz20kMRNY0dce8IfLwc4SdbrTkDl4afAAUMjI71K8BrdOah4JyZ/t9r+Jyb/3y3oX/gHVG/7/2QPJ5P4tItFwBq/H3/DIsAJK66LRot7ihRVFX4CHCCWtQVA9WzwTgVptMkfqN72/+lYBNQEZQIR3SGodPzrd4CC+nPdGag4jTj5A9Xd/j8di4AaoNQa3RGodPzLL9OWROIZAC7SnYMK16iTfy20/0/HIqC6GaL6dGeg0vGvvkyGLW/QnYEK16iTP1A77f/TsQioYuwA1DT+xZdDRAH4U90xqDCNPPkDtdX+Px2LgGol/boTUOn4116GbbHYBgB8LnYNaPTJvxbb/6djEVCVnr3jgQf44LMaxb/0shjX6k5Ai2v0yR+o3fb/6VgEVJ3WTGvHFt0hqDT8Ky+DGOBT/6ocJ//jarn9fzoWAdVFKfnXbdEoT4ZqkNIdoFbdsHt3s+XxTirAozsLnRkn/+N6vV58eNXKsscZy+Xw96P7HUjkjEuCQbyltwce5c7X2N5MBh87dBgLLj2foN4I8D9Q+JUhsk+AGQDTEHPaEjXTZFqHbo5EZnRnpFOxACjRUCz2EkD9SHcOOjNO/v/rT9rb8cqO9rLH+d7UNP5jctKBRM5hEVA7BJhXwCgEBwHsFyV7IMZuZcgTa0ZHR3Zu2pTXnbHRsAAo0VA0/mEovEd3Dno6Tv6n+uDKFY4sAHzf/gPaFgCeC4uAupAFsBuCB2DgfhG53z89/cjNGzfqf3pWHWMBUKKhWPwuAC/QnYNOZQB4+9JeXBwMujJ+rU3+9dr+P53bRcBwKoWPHx6D7dK6AzqjDID7IPiZgnF3GPnf3DQ4mNEdqp5wlUvJ1CW6E9DTvby9nZP/Sepl9f9iHk4m8bkj7j1KeH1TE17a1urK2HRWfgDPgcL7Rdk/n1PG1NZY/CdD8fjbr9+9lzsQOoAdgBJsi8VWCtSo7hx0qrBp4qOrViLgwurtWpz8gfpv/5/u8lAIN/Z0w3ShE5CybfztvlFeCqgejyjI95Rh3Hlrf//DusPUInYASiBiXKo7Az3d5aEgJ/+T1MPmP8X63cICbnLpFsEmw8CGkDO3U5IjLhaof7BteWgoFn9sWzT+99sTCW7MVgQWACWRQd0J6OnWNTU5PmatTv5A47T/T+fm5YDzXfgbI0esF4V/smwZGYol7h6KxV63eXiYj2hfBAuAUvABGFWp3XR2S4ZanvyB+tr8p1hudQI6PKaj45HjFCDPB9RXQ/7A/qFo/CNcL3B2LABKoWSN7gjkPqWUa6vK3daI7f/TeZRyfJET7wGoKd1QeLfpsWJbo/HvDUVHrtIdqNqwACiFYI3uCPR0k5az+4gYAN7U3YXLa/C6b6O2/09wazHgVN5ydDyqCEMpvALKvncoFv/p1mjiRboDVQsWAKXp0h2Anm53KuX4mKZSeHNvD650aEKtlEZu/7t5J8DjLvyNUUVdrZT891A0/tuhaOIa3WF0YwFQGt4QXIV+v5BEyoVbtGqtE9DI7X+3bwN8qEbXg9BpFJ4BJd8disX/Z1t05Hm64+jCAqBITz37mkuBq9C8ZeFH09OujG0qhRt7umuiCGjU9r+bkz8A/GBqmnsA1J9nibJ/PhSLf6sRFwuyAChSrrW1TXcGOrvvT03jkWTSlbFr5XJAI7b/3Z78h1Mp14pLqgqvMj3W7m2xxKdu2L27WXeYSmEBUCRDKbb/q5gA+OyRI9iTSrsyvgFgR0931RYBjdj+d3vyj6XT+MzYEfDcv+75BPI22+N9Yiia2Kw7TCWwACiSLcLNJapcxhZ8YuxwQxYBjdb+r8Tk//HDY66sLaGqtRxKvrEtFvvOlj17lusO4yYWAEWyDIPPrK4BjVoENFL7n5M/uUmg/sQwPY9vi8dvhEhtbgiyCBYARfJYDt9sTq5ptCKgkdr/nPypQlpE8NmheOIn9dgNYAFQpLxpsgCoIY1UBDRK+5+TP2lwtWF6HtsWj79edxAnsQAokm2aOd0ZqDiNUgQ0Qvufkz9p1CaCrwzF47fsOHQoqDuME1gAFMkjwq3AalC9FwGN0P7n5E9VQbA9m0zduz0WG9AdpVwsAIq0q69vGkBGdw4qXj0XAfXe/ufkT1XmYgvqd1vj8T/THaQcLABKc1R3ACpNvRYB9dz+5+RPVapFCe4ciiU+UKt3CbAAKIEAR3RnoNLVWxFQz+1/Tv5U5RQg/2drIvGNWlwXwAKgBIoFQM2rpyKgXtv/nPypVijBq7Op1M/emEj06M5SDBYAJZFDuhNQ+eqlCKjH9j8nf6o5givztvxmSzy+VneUQrEAKIHA2KM7Azmj1ouAemz/c/KnGrbGEPxqSzS6QXeQQrAAKIGCPaw7AzknYws+NTaGWNq9IuBN3V3YEHL+EmG9tf83cPKn2tdtKOPuoUTiObqDLIYFQAlspR7XnYGclbJtfPywe0WAqRT+sqcHKx04Wz9ZPbX/V/l9+EtO/lQfWmHLf22LjrxYd5BzYQFQgjv6+/cDmNGdg5zldhHgUwrburvg1PRWT+1/BWBbVxd8nPypfgRF2d8ZisdfpjvI2bAAKIVSAoXdumOQ89wuAvr8fqxranJkrCscav8/UAXt/wuamrDG73dlbE7+pJEfgju3xGKbdAc5ExYApRIc1B2B3OF2EXB5yJm2/QVNAUfGua8K2v+XOfQzOR0nf6oCQUOp71XjmgAWAKXr1R2A3JOybXzssDt3B6zyl9+2VwBWO3DGfKQK2v+AMz+T03Hyp6ohCMGW721JJC7WHeVkLABKsD0WGxDgGbpzkLvcujsgZJT/sVMAmhwY574qaP8DQNg0HR2Pkz9VoVbDtn+0PZFYrTvICSwAijQ0MtJmKfUlBXh0ZyH3uXE5ICNS9hg2gLwD4zywoL/9DwBpBydqTv5UvdQyy5L/2vLEE526kwAsAAq2NRqNDMVib4VlPwTBlbrzUOU4XQQcdKjlfqDMccZyOYxm9Lf/Aed+Jpz8qeoprFNe37c3Dw87f92rSDyLPYste/YsNzyeF0Pk+YB6PoCVmiORRieKgHct7cVAoLzFd48kk45kejSZKmvl/G/mquPsHwAeTibxrObmssbg5E+1QgHPDgUCnwXwRs056IRt0ehlYhjXQHANgMvAnw+dxm8ovLN3Kc4rcQX+RD6P94zud6R932aa+MiqlfCXsBYgYwvePTqKGcsqO4cTTKXw4ZUr0eUt7ZyEkz/VJIV37IpEPqXv8A3uhkTiPNuS10PhDQAGdeeh6ldqESAAPnV4DA871AEAgJe1tWFzZ0fR7/vqxAR+PF1de1ldFAzinUt7i/5S4uRPtUqAvKnw0lsjkZ/qOH5DFgA7Dh0KZhbSr1eQHVBczU/FazIMvGNpL9YWcTngGxOT+NH0tKM5FIChri48t6Xw9vkvZ+ew69gxlN+DcF6xBc2T6TQ+ycmfatsxI++99NZ1qyr+lNmGKgC2xONrTVF/JZAtANp056Ha5lEK1y3pxPNaWs75QUraNr40Po57XbrmbgB4SVsbXtnRDs85ttLNieA7U1P44dR0VU7+J/xRcxjXLVmC4DkubQiAn8/O4ivjE45cTiHSS36xEIlcfadSFb0m1xAFwLZo9DJR6h2AegMAZ284poa30ufDH7e24tJQEC1P3c8uAA5ls7h/fgF3zc5ivgLX2ru9XjyvpRlXhEJY4vX+4cN9NJfDQwtJ/HR2BsdyeddzOCFsmri6pQVXhENY5vP94d8ya1nH/y0zM1WxgRGRc9QHdw30v6+iR6zkwSptKBp9Pgzj/0LwXN1ZqDH4DYWwYWLOspDVeGbqUQrNpomkbSNT4+1x31P/lnnbQsbm2T7VLVtBXnjbwMDPKnXAuiwAhuLxK8TG+5TCK3RnISIiKtDBrNdz0VdWr56qxMHqah+A7YnEakvkoxC8Wqn6LG6IiKhuLfdl8x8DsL0SB6uLSXLHoUPBbCr1VhH8owKceUYqERGRBjbkVXcMDPyn28ep+QJgSyz2UgPq3wBUzQMWiIiIynDYp3D+zZGIq5t11OwlgDfs29fuz1kfEcgO3VmIiIgctDQj8iEAb3XzIDXZAdgWjV4ryrgZQLfuLERERC6wDIWrbo1EHnDrADVVAGzev78pnMl9RCBvRY1lJyIiKtLvFiL9V7q1QVDNPA74hkTiklAm+5BA3gZO/kREVP8uDyUSb3Jr8JqYSLfG49cpwc0AgrqzEBERVdCxnNgDXx4cnHV64KpeBLh5eNgX9AU+qQQ36s5CRESkQZdXqXcD+AenB67aDsDxVf75bwmwSXcWIiIijVK2wro7IpFRJwetyjUAW6PRiC+Xv5eTPxEREZoMG+93etCq6wAMxeNXiOCHCliiOwsREVGVyBm2te7WtWsTTg1YVR2ArU8mngvBTzn5ExERncJrm+Z7nRywajoA2+LxV4jgTgAB3VmIiIiqUM7Km+d9cd2aEScGq4oOwFA0cY0IvgVO/kRERGfj9Xjs9zg1mPYOwNZo4kVKyXfAyZ+IiGgxGY+hVt/S33+k3IG0dgC2xuNXc/InIiIqmN+ybUd2B9TWARiKxy+C4FcAWnVlICIiqkFHmsVefdPgYKacQbR0AIZGRtZA8N/g5E9ERFSsnjmYryl3kIoXAG/Yt68dlv1fAJZW+thERET1QJTsKHeMihYAm0VMXy7/JQDnVfK4RERE9UQBz77+yb3nlzNGRQuAUCzxMQAvq+QxiYiI6pHHsIbKeX/FFgEORRPXQ8kdlToeERFRnTvim55aefPGjblS3lyRDsDQyMg6UfLZShyLiIioQfRk2ttfVOqbXS8AhkZGArDtryog7PaxiIiIGokStbnU97rfAbDt/wfBpa4fh4iIqOHItZuHh32lvNPVAuCGePyPIbjRzWMQERE1sLZwIFDSZQDXCoChkZE2S3AbquB5A0RERPVKRL26lPe5VgAoSz6lgBVujU9EREQAIC/dKVL0fO5KAbAtOvI8gVzvxthERER0iu6ReHxDsW9yvADYPDzsE9ifA1v/REREFWEALy3hPc4K+f3vhsI6p8clIiKiMxOoogsAR8/S3xiNrsgrYw+AoJPj0rmJJbDn8pAFC9aCBWRt2LYNldedjIhqnXgAwzAAnwEzZEKFTBjNHiiTTd5qIkDezOc6bl23bq7Q93icDJBX5ocA4eRfAZKxkR/LIH8sA2smB4juRERUr6yn/ueJ/WaVoWC0eGB2+eDt9UP5TV3R6CkK8Ng+31UAflLoexwrAG5IJC6xbS78c5s1nUV2JAVrMgcIZ30iqjyxBdZ0DtZ0DtlYEp5OqzC65gAAIABJREFUL7xrgjDbvLqjNTZLngUdBYBt2/8MqIo+XbCR2LN5ZJ6chzVd0jMfiIjcIYL8eBb58SzMdi98a8Mwmx1tLlOhFJ5d3MsdMBQduQrKvteJseg0tiDz5AJyB9M84yei6qcUvCsC8A2EuE6gwgSY79s/2r5z06aCVoA5c8au5P2OjEOnkIU8kvdNI3cgxcmfiGqDCHL7U0jdNw17niuRK0kB4ZEVK84r9PVlFwBD8fgVgLyk3HHoVNZ4Fkl+gIioRtlPncBYE1ndURqLYRT88D0nOgB/68AYdJL84TTSD89ALJ71E1ENswWph2aQP5zWnaRhKFGXFPrasgqA7YnEahG8spwx6FT5Y1lkHp9jx5+I6oMA6cfnkT+a0Z2kMSipTAFgibxNObyXQCOzpnJIPzrLyZ+I6osI0o/N8S6mShBcXOhLSy4Adhw6FIRge6nvp1NJzkb60TnA5uxPRHXIluMnODl+x7ms94bdu5sLeWHJBUAumdwMoLXU99Op0o/NQbLW4i8kIqpRkrGRHp7VHaPu5X2+vkJeV3IBIFA8+3dIbizDlbJE1BCs8SzXA7jNtiOFvKykAmBLPL4WKG7HITozsQTZ6LzuGEREFZPdM8/LnS4ygIECX1fS4K+Hw08SbFT5A2lIxtYdg4ioYuyMjewB3hroGqXWFPKy0i4BCF5T0vvoVLYgO5rUnYKIqOJye1MQdgHcIegt5GVFFwBbEomLAVxQdCB6mtzRLM/+iaghSdaCdYxrAVzSU8iLii4ADBuvLj4LnQl3xyKiRpYfYwHgku5CXlTCJQB5WfHvodNJXmBPcuU/ETWu/HgWyPMygAucvwQwNDLSC+CykuLQKaypHHf8I6LGJkB+irsDuqB58/Cwb7EXFdcBsKyXgKv/HWFN8eyfiMhiAeCKUDAYXOw1xRUAov645DR0Cj7ml4jo+GODyXl2Nhta7DXFFQAKzyk5DZ3CXuC2v0RELADc4TXNpsVeU3ABcP3uvX0AVpWViAAAIuDtf0REACRtgwuinCeG4VwHwPDkefbvEJXn5E9EdIKwIeo4W2TRRYCeQgdTSl0JFmmO4B870f+yrTxse/GFYIbpg2GYFUh0FgLkreyiH2AFA4bHC6VKftZa2URsWPkssMiXtmF4YJjeyoQ6l7wAHq4vd5KILHqmWXgBIGqDsAJwBLtd1OhS85OYnx1DemEKtl14RWyYXgTDnWhuXw6ff9EOZ9nEtjA3M4bk3FFkU/Mo5jvQ6w8hGF6ClvblMMyCv2pLlsulMDd1EKn5SeRzhW8yppRCINiGUEsPgi1dUBpu9BLh7WVOM2Txmaagv8qdIsZIPHERf0FEVA4rn8X44d1IJ6dLer9t5TA/M4aFmSMIt/WivXsASrnzzZRemMbE4d3Hz/pLkMssYCazgLnpg+joHkCopaDN2YomEMxM7MPsxH4U8J3/9PeLILUwhdTCFHxTB9C19Hx4fIuuH6MqJ+JZtANQUI9qdGRkUAHh8iMRUaOychmM7Xuw5Mn/ZALB3PRhHDnwCArodBZtYe4Yjhx4tOTJ/2S2lcf42G7MTh5wINlpBJg4tBsz46MlTf6ny6bncXj0QWTTfER5rTM8i/9BFFQA2LZ9fvlxiKhRiQiOHhpGPu/s3u+Z5Awmj8QcHTObWcDE4T1Y7Pp5UQSYPjaC1PyUc2MCmJ7ch4W5Y46OaVt5HDs4DNvm7Xk1btHrQIWuUhksMwgRNbD56cOunVXOz44hk5p1bLzJo3FXugoCweTRmGNj5/MZzE6MOjLWmcaecWlsqoysYSz6oWABQESum5tyof19ggBzUwcdGSqbnkfGgUsUZ5PPpZCan3RkrPnpQ460/c8+/mFXCiGqDDUTcKYAUFAD5cchokaUyyaRK2JVeilSC1OOdOyT8xPlD7KIlEPHSM45U0icjW1bjqzXIC2sL17ck1zsRQUVAAIsKz8PETWifGbR76Gy2XYelgML9vK5lANpzi3nxDEEyOfc/7nmsu4fg1wxB6WcuQ0QLADoKaZhI9JyDCvCk+humkXQk4VSgmTeh/FUGAfnOxCd6UHO1rhhS4WpkAeeZhMqaAIeA4apIDmBnbVhJ/OwZ3KQXONu/lCpxWS2lYPpWXTzs0XGcD+rE8cQsVxt///hOBZ3LatRRwp50aIFwPUPj4WAheby81CtUhBcvOQANi1/HBu6RhHwnHvXtpxt4rGJFfj5wfNw/9F+WLa+HdHcYoZNeJY1wdPjh/Iv8u8TwJrLIz+WRv5QGpJvrGLAKHNSruRxzArsimd6yj+GMkwYhlnUJkqlMBzISjqow4W8atECwNs022Ojcc7m6FQbuvbh9Wt/g9XNhV+39BoWNnTtw4aufTiSbME3Ylfi14cGIHWw15cRMuEfCMHs8hf+JgWYLR6YLWH4+0PIjaaQ3ZeEWI1RCPh8oePbvLn4zzU9PphG+ZOVNxAGZgs6eSqZz+/Mlipef8jRux/OdgyqPQJxpgDIK9Vaf+dvtJiQJ4M3rf85nrk0XtY4PcFZvPXin+AFy5/ATY/8MaYyQYcSVpgCfKuD8EVC5e1Z6lHw9gfhWepHengO1vTie+DXOtPrh9/fjEx6zrVjBJuXOLKXbDDciemjiaK2/C1WU3iJI+MEw0tcLQBM04dAoNW18ck9BuRQYa9bhBKT7f8GszQ4jQ//0Z1lT/4nW995AP/y7K9hbZu7Z1euMBQCl7TCN1Dm5H8S1WQicHkbvCsaY8vVlk73niSulIGW9uWOjOXxBhBs6XJkrDPxN7UiEHRmUm1uW+rqg3xaO1dxg/4aJaKcKQAMU1rKj0O1YmV4Eh945n+gJ+j8mUWLN41/vOI7WN/hzD3blaBMhabLW+FZ4vx1bKUA/7owfGtqtCtShGC4E8FmdybWtiVr4PE6V0i1dfWXvZjwTJRhorPHuTuqj4836Mok7W9qQbit1/mBqSIEqqDtMRfv7ovwIlCD6AzM470bv4cWr3v3bPvNPP72sh8VtaZAG6UQuKQFZqu7C6F8AyF4l9V/J2BJ71oEgm2OjtnSthwtHSscHdPj8aF7xYWOnl0bhomupRc4fk092LwE7Uv6HS0CvP4QupZdoPVxxlQe5VFPFvK6RX/DohRXADYA07Dxtkt+go7AguvHavJk8c4N/40ms7qvf/v6gzA7KrOC3bcuBLPZ/UfG6qQME90rLkJrx6qyJxfT9KKzdy3aeyIOpTuVzx/G0jWXoSnYXv5YTc3oXXUpmsLlj3UmLR0r0L3sQng8RSxMPRMFhFt70bvqUlc6IFQx1kIymSjkhYt+48jxTiXVuZeuegTr2gtaOOqIpcFpvHbtb7DriedU7JjFMJo98FawNa8MBd/6FqR+O+nqanndlFJo61qDcFsvFmaPIZ2cRD6XhW0tXgyaHi88viYEQx0ItnTDMNwtmDweP7pXXoRMagbJ2XGk07Ow8hmIfe7tcZVhwDB98AfCCDYvQVOww/Vr6U3hDiwLXYHk3DGk5ieRzSZh5bPAInsFGIYJjzcAf6gVoeYeePkY4JonwMid69cXtCtWfZ9yUEGafWm8evD+ih/3xasew0/2X4iD8+6cGZXDvzZc8crXDJvwLm9C7oD7u9Hp5vEG0Nq5Eq2dK3VHWZS/qRX+pupfDa+UgVBLD0ItPbqjkEZK4YlCX8uLPISXrnpUSzveUIJX9v2+4sddjNnmhdmuZwMU35ogV14TUelsFPyluvgaABFuBl3HDCXYtOJxbcd/5rIYmn3uPiimWB6Nt+apgAFPZ5nXcomoYQmUcwWAKSYLgDp2QcfBiiz8OxuPsrCxe0Tb8Z/GVPB06V0A5ellAUBEpfHCcq4AUIatb3Yg113U6eJz2gt0YYf+DCeYrR4oU28P3uzg/utEVJJjtwwOFvyFuvgaAKXc27+TtIu0HtUdoSoynGC26J98lc+ACnB5DhEVS91TzKsX/ZbJGkb1fDuT43qDM7ojoLtpDqY6961VlWIEq2PbCzPIG3SIqEgivyzm5YsWAAMjI8cAVMe3MzmupQoW4JmGjaA3ozvGcd4qOfP28VYAIiqOKPlFMa9f9Ntu56ZNeQEmS49E1cxr5HVHAAAEzOrIUS03xupeh0BENWeub//+h4t5Q0Ffdwoo6MlCVHuyVnW0mtOW/mvvAKqm1yX5Ot4OkIjc8MudmzYVdSZVYAEge0uKQ1VvJqt/68+8mEjmq2Tv8Wx1VACSq44cRFQbRNSPin1PQQWArZRzD4anqjKW1L/F6ZFkMyy7Onrv1oKlOwIAwK6SHERUK6z/KvYdBX3rGqIKerIQ1Z7otP5nfseqIMMJ9pz+JxRKxoJk2AEgooI9fvvgYNEn6oWddomKFh2HasKjE84+S70Uj0xUzwNhrOkcoPn6uzWhvwghotohkB+W8r6CCoCcVz1SyuBU/fZM9eJoqkXb8TOWB787skbb8Z9GgNwRvbck6j4+EdUWwza/WdL7CnnRl9asOQyAGwLVIYHCT/ev13b8Xx06D6lquQPgKfmD+h7HK0kL1iQ7AERUIIWR2wbX3FfKWwteeSUAuwB16sej6zGn4W6AnG3g24nLKn7cxVizeVgTWS3HzowkAeEtgERUGAG+BqVK+tIo+CZwA/i9AH9cykGouqXyPnw1eiV2rP95RY/7vZENOJZqrugxC5XZM4+mq9qhjMptyGPN5pEf078zYyXkMguYnz2C9MIU8vkMbGvx25dNjw+mJ4BgcyfCLT0wPRW4dVSA1Pw45ufHkU3NwspnIXLuBZpKGTA8XvgCzQiGOxFq7oZS7v8d2VYe87NHkJofRy6bgp3PQXDuecEwTJgePwLBNoRbu+EL6LscSKUxlfp6qe8tfBcYse+Bqo5btch5P9t/Pi5fsheX9+ytyPFG5zrwn4nLK3KsUthJC9lYEv61oQodUJAensMi39c1T2wLk8fiWJg+sujkdDorn4WVzyKbnsXsxChaOlahtWMl4NLcmsssYHxsD7Lp+aLeJ2LDymWQymWQmhvHzMQolvSuhb/JvVtu52ePYOpoArZV3OUj27ZgZ5PIZZOYmz6EpuYl6OwZhGlW12U5OjMBHru1v7+o3f9OVvCM7rXtX6Puv54al0Dh34Y34fCC+/sCzOYC+NiDL6uaXQjPJjeaRP5IBc7IBUg/NgdZqJLtkF1iW3mM7X8E89NjRU/+TxvLtjA9PoLxsd1lj3Um6eQMxkYfKnryP5N8NoUj+x/FwtwxB5I93fSxvZg4vKfoyf9MUnPjGNv3EPJ5LkStDfL5ct5dcAFw83nnjQN4spyDUXWbyzbhnx64BuNp99ryCzk/PvLAK3AkWRutxszwvLvrAeT45Yb80fr+whUIjh3ejWza2aeLL8wexcz4PkfHzOdSOHZoGLbt3GZMIjYmDu9BxuF///zMGGYmRx0dM59L4eiB4UUvdZB2Gb9lfaWcAYrq6Suoop40RLXnaKoF7/vNK7F3bonjYx9LNeP9v30l4jPdjo/tFrEFqYdmkD/sQifAEqSHZ5E7oO+ug0pJzh5DesGdZ4rNTI4il006Nt7ksZGC1iQUS8TGxFjUsY6FZeUwddSdPdpymXnMTh1wZWxyiOBbT52Yl6yoAsCCXfRWg1R7JtJh/J/fvAo/Hr0QIs5cYL33cATvvuc12D/f4ch4FSVAengO6SfmHNskyJ7LI3n/NPJj9X3mf8LMpIuTicCxySqXTSI1V9Z36rnHz8wjszDlyFjzM2OwbfcuG81OHoTwjpSqpWDcXO4YRV2EtUTuMpTKAeAKkTqXtTz4wuPPxS8PnofXn/cbrO84WNI4iZkufPXJq6pqt79S5Q+msXAsB18kCO+yQEmLzyRjIbs3hfyBVMPc7ZfPpZHLlH8t/VyScxPo6BGoMlcEpuYnHEp0dsn5CQRC5RfCSRcLFQCwrRyyqRn4g22uHodK8vvbBvvK7sgXVQB8eXBwdigWuwdQzyv3wFQbojM9+MB912Kg9Siet3w3ruhOoD1w7nbrbC6AB4+twS8OnIfhyeUVSloZkrWQeWIO2ZEFeJcG4Onxwwgv8jGyBNZ0DvnDGeSOZgC7QWb+p+SyC64fw7ZysPO5sm8NzGWcu5RwNlmHjpHLuP9zzWaSLACqkcL/c2KY4pdhi/ouFFgANJjYTDdiM934wuPPxdLgDFY0T6CnaRZBTw5K2UjmfRhPt+DgfBv2z3VA3Lo3q0pI2kZ2JInsSBLKZ8AIe2CETCiPAkwF5AWStWEvWLDn8pAGm/RPZucrs7OhbZVfAFgOrKRfjBOr9cW2KrJIz7L1bIhFZyfAAf/U1J1OjFV0AWAb+KYh+Bhcu/uWqt3hZCsOV8FjhKuFZG1Yk1lY7qxxq3mGWYENewAYnvKvTFbi/ncnjqEME0oZrhcBplGZ3x0VTkH+9eaNGx2pVIve2eeOSGQUCiXtO0xEjcfjd3+bacP0wnBgYvX43M/q1DG8/qAj45xLJX53VAw1YeTzn3NqtJK29hNRjrQfiKj+eb1N8PrcnayaQh1lLwAEgGC404E0ixyj2ZljBEPuZjUMDwIu7l5IJVDysVvXrXNsM4mSCgBlqi8D4CPLiKggLR0rXBtbQaGl3ZnFpl5/CE2hdkfGOhOfP4SmoDMTd3P7MijDdGSsM2npWA7F7d+riJowcrnPODliSb/dXX19Y1DgngBEVJBwS69re+E3ty+HLxB2bLz27ogrE6tSCh3dA46tnjJML9qWrHFmsNN4fUE0t7tXtFEJlHzUybN/oMQCAAAgcquDOYionimga9kFjl8KaAp3oL27z9Exvb4gupad7+zZrwI6ugfhDzpbBLW0L0dz21JHx/SYPnQtXw/Dxe4CFe2gNR/6tNODlvwX7pue/gEgh5wMQ0T1y/R40bv6UoSau8o+C1bKQGvnKnQvuxBu3JDUFOpA78pL4HVgwZ7p9aN7+UUIt/U6kOzpOnoG0dE94MiEHQi2o2fNZY78u8lBov7+i5f0Or7xQ1mfnK2xxD8oyIecCtMo7JSN5K/d33GMqFpl07OYmx5DemEKeStT0HNGlTLg8QYQDHci3NYLj7cSk5RgYeYIFubGkUnPFvyMAGWY8AWaEWzuRHPr0opcS7fyWczPHEZyfgK5TLKwWwQV4DF88IfaEG7pdmSHwlIEn9UJo4nrDc5EQT24OtK3cadSjt/zWVYBsGPPniVZ0zMKgOViEeyMjeSvWAAQAQAEsGXxidUw9D8+WsQuYGJVVdE+P/40w3NXVkqZUEr/li7B53TC8LMAOBOx1fNuX9v/SzfGLusnfvxJRPIlp8I0CmXq/8ARVQ11fHJf7L9qoJRRQFb9kz8AGIa5aNZqmPwBwOB34pkJvuzW5A+UWQAAgAn8iwDuPZKqHpmK+ygSEQHHvwtZAJzJjGF5/87NA5RdAHxhYCCmBF93IkyjUApQbHcREUH5TZ4QnYGCvPvWdatcXWjvzCzkMT4EwHJkrAZhhKqjpUlEpJMRqo5LJtVEQd27OhL5vNvHcaQA2NXXtxvsAhTFXOwRskREDcBs5nfhaVJiqhvcWPV/Ouf60B7jHwBkHBuvzhnt7j91jIio2vG78FQCec+uvr7dlTiWYwXArr6+vQri+E5F9cps9/K6FxE1NGUoeFgAnOxnt0ciN1XqYI6uRMt4vf8fBHwqegGUqeBZwmdtE1HjMrt8gMEzoadM2wrboFQB22I5w9EC4CurV0/BwD84OWY98ywN6I5ARKSNp5ffgX+gsP2OSGS0kod0/F60Nf39Nyuoe50etx55uvxQTVwBS0SNRwUMdkH/16d2RSL/UemDOl4A7FTKFiV/wc2BCqAA32ruokxEjce3JsR1UMfd3yz2u3Uc2JXdaHZFIo8awMfdGLveeJcFoALsAhBR41BNJjzL/LpjaCfAOEzjNTcNDmq5g8617ejCYr8PwKNujV83DIXA+WHdKYiIKiZwXhiKi/9yAnnNrr6+vboCuFYA3DQ4mLHF3gog59Yx6oXZ6YOnh4thiKj+eXv9MHntHwry1jsGBu7WmcHVDenvGBx8UBQ+5OYx6oX/gjBUkJcCiKh+GUETvnXNumNop6D+9baBgX/XncP1J9L09fd/SICfun2cWqdMhaaLWvioYCKqTx4F/0UtUJ7G/o5TkO+u3r/vr3XnACq0BvONiURP3pYHASytxPFqmTWVQ/rBGYhdsb0giIjcpYCmDa0wOxq99S+/gGm+ZFdfX1p3EqACHQAAuKW//4goXM9bAxdntnsRuKiZz8cmovpgKgQuaeHkDzziU+raapn8gQoVAABweyRyl1L4m0odr5aZXX40bWiF8lbs10NE5DjlVWi6rBWeJQ1/y9+TeY/5kpsjkRndQU5W8dPMoVjsZkC9qdLHrUWStpF+dBbWDG+kIKLaYrZ4ELi4peH3OREgJlb++Xecd95B3VlOV/FTzGaRt0Lhl5U+bi1SAQNNG9vg6w/ygRlEVBsMBX9/CE1XtDf85A8g7hV7UzVO/oCmjRjfsG9fuy+X/xWA9TqOX4vspIVMbB7W0azuKERET6eOP9/EPxjiM05w/MzfgLzgtoGB/bqznI2208ote/YsN0zPPQBW6cpQi+z5PLL7UsgfzQAW7xQgIs1MBU+3H97VQZhhTvxPGTby3hfdum7VId1BzkVrX3lbNHqBKONuAN06c9SkvCB3JANrIgtrKgfJ2boTEVGDUF4Fs90Hc4kP3m4/0OD39p9MgP9RpnHNrr6+ad1ZFqP9t7YlkbjYsPEzQDp1Z6lZcvwSgTWbQ25sHrm5HOysBcnwrksiKo/h90D5THiaffD1hmC2eGEEzSqYPaqPCL7vDzW99uZly5K6sxSiKn6FW6LRDYYy7gLQrjtLLbHmcliITyB9ZA7Z+STsXB4CXhYgIncoKBheD/zNQfh7WhCMdMAT9uqOVS0+tRDp/+s7lbJ0BylUVRQAALA1Gl2vlPoxoJbpzlLVbMHc4+NY2DuOzPyC7jRE1MAUFHzNQYTXdCJ8fldD3q0kQN6AeudtA/2f1p2lWFX12xqKxwch+AmA1bqzVB1bMPPIGObiR2HluC8AEVUX0+tFc6QHrZf0AKqqphb3CCYNA6+9NRKpyefdVN1vaVsstlKgfgTeIvgH6QOzmLh/H/KZjO4oRETn5PX70X75KjStatUdxW33m4ba/IX+/n26g5Sq6goAALhh9+5m2+P9GoCX6c6ilS2Y/PUo5g4e052EiKgo4WWd6HzOmjrtBsgXF/z+v7hz5cqU7iTlqNrfzI4HHvBm29o+06jbBlvJPI7+9ElkkzWxmJSI6Gl8wSb0vHAtjKa6WSg4C4Ubd0UiX9EdxAlVWwCcsDUW26GgbgLQMI+Syk9ncORnTyKfZcufiGqb6fWi5+rz4G0L6I5SFgV1rwF7yxcGBmK6szil6gsAALghHt9oC76JBlgcmJ/JYOzHT8CyeA8/EdUH0+NB74sugKelJs/jchD808JA/wdr6Ra/QtREAQAAb0wkevK2fTugXqw7i1usdA5jP3gC+Rz3+yei+uLx+dH70vNhNnl0Rymc4D7bVG+6o7//Ed1R3FAzBQAAQERtjcffpKA+ASCoO47Txn7wBDJzvLefiOqTPxxC7yvO1x2jEEkofGChv/9j9XbWf7LaKgCeMhSPXwTgDggu1Z3FKVO/2Y/ZvUd0xyAiclVLXy/ar1yhO8Y5qO/YSt52RyQyqjuJ2wzdAUqxKxJ5dM3o6BVQeA+AtO485cocS2J271HdMYiIXDc7cgTZ8Sq8u0mwGwov3zXQ/6eNMPkDNdoBONnQyMg6WNbnAPU83VlKdfi7j/N2PyJqGL5QCEuvqZpLAUcV5H3zkcgt9dzuP5OaLwBOGIomroGSfwWwRneWYiw8OYHx34/ojkFEVFFLruhHKNKhM8IcBJ/1GfjwzZHIjM4gutRNAQAA1z88FvIEF/7OVniXAsK68xTi0LeHkUvX9GZSRERF8wWDWPonF+g49BygPglTfXxXX9+0jgDVoq4KgBPemEj0WDbeK5C/RBVvIJTeP4sjv35SdwwiIi26n30emlY0V+pwYwL1aY/f+29fWLlyslIHrWZ1WQCcsD2RWG3Z8h4AQwCqbhuqY3fFkTw2pTsGEZEWoe52LHlBxO3DPC6iPt4C60s3DQ5ye9WT1HUBcMLQyEgv8vY7oHAjgBbdeQBAbMGBbz4E226oNSdERH+gTAOr/mwDYDg+FWWh8B0DuPnW/v67oJQ4fYB60BAFwAk37N7dbJm+LUrJmwFoufh0Qmp0BkfvieqMQESknZOXAQSIKYUveJS67Zb+fm6ssoiGKgBOtiUW22SI2g4DfwpBqNLHn7pnP2ZH+fdJRI2tZXUP2p+5suT3C3BAKXwDwNd2RSL3O5es/jVsAXDCm4eHwwt+/6uUqD8XhU0KqMhG1WM/3IPM7FwlDkVEVLUCLWH0vGxdsW+LisL3Yalv9w32/c9OpWw3stW7hi8ATrZ9//4OK517OSDXwsBL3OwMHPjWw7ByObeGJyKqCR6fD8tfdfFiL0tC8GsF/EgMfH9XJMLrpw5gAXAWm4eHfUFv01WGkqtF4WoAzwDgdWr8fV/7HQCuSyGixqaUwqrXXn76/3kawD1Q+KUS+ZV3evr+mzdu5BmTw1gAFGhoZCSgLOsyUeoZEFwJYIMAkVIuGdgZC/v/80EXUhIR1Z4V1274hRkw7wXU7wXW728fHIzrztQIWACUYfPwsK+pqWmdadvn2zAGDGCVAKsAWSVAtwI6cIYHLuVnsjj4o7p8vDQRUdGCzaGLfvD2VzymO0ejqciCt3p15/r1WQCPPPXfGb1h3772QCbTLkq12UopEfFlD85eBeDjFQtKVGVEBJmFaWTmp5DPp2Fb+UXfY3p88HgDCDR3whcIA6oy5y92PofU/AQyqVnYuSxEzr3eTCkDhscHf1MYgXAnTK+/IjkBIJ9ZQGp2AvlsClY+C1nkMqNhmDC9fvhDbfCH22HRe8jNAAAgAElEQVQos0JJTyU5r9aHAjQqFgAu+8rq1VMATtnu75qP/7hqtycmcltq9himj47Aypb2JO/Z8VH4mprR2hOBP+jevl5i25gd34f5iYOLTvpnkpwGoOIItvWgrbsPhunYEqKnyWWSmDkSR3q+tJ1F5ycPwfB40dq1GqG2pRUrrk4wjQofkACwACCiChEAM2NxzE8eLHusbGoOx/Y9jI7eQQTbe8sPdxorn8X46KPIpRfKG0gEyakxZOansWTVhfD6g84EPEl6bgITB/dA7MW7KOdi53OYOhxDemEaHcvXQamnXb2kOsPfMBFVxOyxvY5M/n8ggsmxKJKz486NieNn/hOjw+VP/iexcmlMjD4KK+/sQvZseg6TB3aXPfmfLDU7jqnDfEhZI2ABQESuy6bnMDe+3/mBRTB9+MmC1hAUavbYXmTTzm/Slc9lMHMk5tyAIpg8sBu2OP88keT0UaTmjjk+LlUXFgBE5LrZo3sBcWffC9vKO9ZZsPM5zE8ecmSsM0nOjiOfcaazsDBzFPlsypGxzmTm6D7XxqbqwAKAiFxl23mkF6ZdPUZy1pmz1dT8REkL/gom4tgli9TsUUfGOZt8JulYsULViQUAEbkql5p37ez/hHwmCduB6+DZpPvP58imZp0ZpwJZM0lnslJ14l0AVBLTsNEZyCDky0MBSOY8GE/5kbcbt6Y0m7wwvCaUx4CdyR//L89nlOTzmYocx8plYfjL+0qzKpDVypV/DLFtRwqexVj5rOvHIH1YAFBBlAIu6RnHs1YcwSW9E1jVsgCPcerkZtkGDs4H8eiRDtx7sBsPHOxGXur39l5vSxNCq9oR6GmGry0I5X36Jir5ZA7ZiTmkD89h4cAk7KzzC7aqnWFUpihUDhzHMN3fCEc5sdmOYRz/ULrcWeGtgPWNBQCdk8+08dKBUWy+IIHe0LkXHJmGjVUt81jVMo+XD45iKu3Hf+5eg2/vXoNkvn7+1JqWtaLl/KUIdIUXfa0n6IUn2IHgyg60X74SC3snMPP4YeQXGufMyuNpcv0YyjBgesrfcc/0BhxIc24eX/k5FQDT44eVK20zpUKZPvd/d6RP/Xwrk+MuWzqOtz/jMSxvLm0hUHsggxsu3YNrz9uHf3vgfPx83zKHE1aWJ+RD5xWrEehtLen9yjQQjnQh1LcEs0+MYXr4EGDX/xMhPU1hmB6fq+1kf7ANyoHN5AKhdnduVzyJP9zpyDhN4Q7MT7l3xwKUQiDU5t74pB37O/Q0SgHbN+zGP199X8mT/8k6m9L4x+c8iL955iPwGrV5TTy4sh1LX7K+5Mn/ZMpQaF2/FEuvXgczWP+7QisAwTbnd+s7Wbh9qSPj+IOt8LiwW98JhulFU7MzBUCwvdfVLXuDLV0wTJ4j1jMWAHQKjxK899kP4vXr41CLPEikWC+J7MeHr/4tgl73Fy85qXmwG11/1A/jDNf4y+HrDGHpC9fB11r/bdbmzhUwPe4UO4FQGwIOTapQCm09/a5NrC3dqx2bVH2BMIIt3Y6MdTpleNDavcaVsal6sACgP1AQvPOZj2LTavfaipf2TOIDz78fPrM2OgGhNZ3ouHyVaxOC2eRD9wvOg6fZ/WvPOhmmB50r1zv+tDnTG0D7inWOjhkId6BlySpHxwSAYFsPwu3OXgZrWzYAX6DZ0TGVUuhYfl5F1kOQXiwA6A/ecGEML+539/oncLwI+KuNw64fp1z+zjA6r1zj+nFMvwfdz45Aeer74+hrasaSvovhcejxuP5gC3r6LoFpOt9ZaOlajdbeiDOFn1Jo7lyB9qVryx/rNIYysWTNxY5dVjheqF3o2HhU3XiBhwAA5y2ZwZaLHdynfBEvHxzFfYe68Ov97l4bLpXhMdD1rH5HFpYVwtv6/7d350F2XfWdwL/nbm/vfVNrtxZbm23iTYghMVUmxmBDUbbD1FTBDKkkNngCQwieypCZeKYKqAkwC1TGmErIFM4AiTAzCRiwEseQeJGNLVvIkrVYS0vd6u319vZ3tzN/yDKW1a1e3r333O73/fytPuerXt793bOm0H79Gky+eDaS/lSxkjn0broJpYlBlKZHlrSK3Upmke3oR6qtD2H+dHIdq5HKdqCQH0C1MLnoC3eE0JDItqOle13gb+lvpWk6OtfuQLU4geLEIJzKzKIn7zQjgUxrN3Jda0O9tpjihQUAQQjg0zcdgh7xAr0HbjqMF4e7UXfD33u9WK07V0e+QC+3qRulU3nYk5VI+42a0DTkutch170Orl2F59ThLeAyH92wYFiJQLb7LZRhpdDRfw1knw/HrsBz6pDz7L0XQkA3LJiJTCBnEyxUKteJVK4TvufArVfhefa8xwRomgbdTMJIpEMtpiieWAAQ9qwZwdbOmcj77UnX8IHNZ/GDoxsj7/tKtKSB3Obu6DsWAm07V2Psn05E37cihpWCsQz2mgtNg5XMAsn5z35QTdNNWGm+xdP8VvakIy3IPdtOq+t7++kwdzItScvmHmXz8an+VpgtXHxFROFjAdDkVmUr2Nkzpaz/nnQV1/ZMKOt/NpkNahdAqe6fiJoDC4Amd/PqscD3+y/WLauDuco1CGZLEkY2ujnm2aRWNX7YEBHRfFgANLldCt/+f5UhPiMAya7wVmsvlNWWmvViISKiILEAaHLrWsK/U3w+61tLqiO8yWiNwfy7EFwHQEShYwHQ5Loz4d4mthBp00UmJscDGzFZPW00wR0BRKQWC4Aml4rJgzcuBYAw4rEzVlvhpwISkXr8lGlyUsZjD54Xl1tx5zs5JSIxiUFEKxgLgCZXsuMx5F1y4pHDdzzVEQAAvh2PHES0crEAaHLDJfWnsE1Uk7E5Dtgt1VVHAAC4JfVrM4hoZWMB0OROT7WojoAz0/E5XtWerqqOAOn5cGJSiBDRysUCoMm9Mqr+1LmXR9RnuKg2XlAdAfV8CfC5CICIwsUCoMm9MNSDuqd2+P3ZGF0J7Ndc1MbVnktQOTettH8iag4sAJpc2THwjMIH8JF8O84W4jMFAADl03llfUvPR+XcpLL+iah5sAAg/PXhqyAV3Qb+3cOblPR7JeXTE/AqtpK+Syfz8OrxOBOBiFa2eJx6QkqdnGrBk6f7cdvGoUj7PTTWgf3neiLtcyGklJg+NITOWzZG26/jYea14Uj7VMm1q6iVJuG5Nnxv/qJH103oVgrJbAd0I8Jto1KiXi3ArhTguTak9Of5AgHdMGGlWpBIt0Jo0b1n+b6LWnESrl2F79rzXvOlCR2alUAy3QozGa+ROAofCwACADzy0jbcuCqPtmQ0q8/rno7/8fxOZSMP8ymdnkBmQyeSvdHtkph8ZRBe1YmsP1XqlQJmxk7Drsws6esFgGRrN9p6NkI3w7szQUqJ8vQICuNn4btL+7vQNAO5rrXIdq6GEOEVAp5nozh2FuXpYcglnCI1A8BIZNDWexWS2fbgA1IscQqAAABTtQS+9Mz18CM6GfDrL+zAwIz6m/euJL//dGQP5PLAJEon43MtcliKk0PIDxxc8sMfACSA6sw4Rk8dQK0UznoJ6buYGDyC6eETS374AxfeyGfGTmP8zMGG2rkSu1bE2MmXUZo6v6SH/0VuvYz82UOYGT2l+IJwigoLAHrTS8Nd+J8vhP9W/p1XN+OnJ9eG2kcQvKqDsZ+fCP10wPp4ERMvnAm1jzgoT49gZuRkQw+pt/I9F/lzh1FvoJiYjZQSE4NHUSsGd021XS1ifOBVSD/Y3yXPqSE/8Cq8AIuL4sQgimNnAmuP4osFAF3i8RPr8OVnr4Xnh/Or8b3Dm/CtV64Ope0w2NMVjD51DH4tnIV5tdECRv/pdUhvvnnl5c21K5gaPhF8w1JiaugopB/c9680MRjKyIJTL2Nm7HRwDUqJiXOvwfeCH6UqTJxDrcztqCsdCwC6zL5Ta/Dgk7dgohrc/GrFNfCFp9+BP3/5msDajIo9WcHwviMXDugJUPH4GEZ/fgIyJvcPhGlmfCC0G45cp47y1PlA2vJ9D8X8uUDamk1pahiuHcxpk9XSBOxaMZC2LiMlCkEWKxRLLABoVgdHO/B7j78bP3l9XcOf20+f7cPv/N2v46kz/cGEU8Ct2Bh98himXh5s+IHtTFcw8uQxTB442xQn/vnSQ70Q7tkGlZlg1k/UihPw/RC3YUqJSiGYrJXpsUDamYtdLQZWrFA8cRcAzWmmZuGr+3dh75GNuGf7Kdy6fhhpc2Efjran4dnBPuw9chWOTbSGnDQaUkoUjo2gdCaP3JZu5K7qhp62Fvz19fEiCsfHURmcaqr7fp1qCb4Md5TDrpcgfQ9Ca+xUS7sS/lHQjSyAfKt6Ndi1D7P2USnAsNRfGEbhYAFA8zpbyOK/7b8Wf/aLHbi+bwLX9U5iY1sBfdkqMqYDTQAl28BYOYWBmSwOjnXi5eEulJ2V+evl113MvDqMmcMjsDrSSPW2wGpPw8gloVk6NF2D7/rwaw7smSrsfBnV0Rm4ZTWHC6nmORFsLZUSnluHYaUbaibIxXRzcZ3Gfw+k7y/o7IRGeQ5vpVzJVuYnNIWi7ul4fqgHzw/F7/AeJaSEPVGGPVFWnSTWhIjqrIcg+gk/qxbA90MIASFl+Nv1IvvZkQpcA0BEodKMROh9CCGgB9CPboafNZA+hIBmLHz6aamMEA9aIvVYABBRqBKpHDQt3MFGK6Ajd6M4BS+oPhIhZxUAkpmVsX6HZscCgIjCJQTSreFOG6VbewNpJ5FpC2QkYS5C05DMdQfSVlD/57kksh2RjN6QOiwAiCh0Ld1roTW4Qn8uZjITWIEhhIaWng2BtDWbXOfawC4ySmbakMx2BNLWZYRAa2+0l2FR9FgAEFHoNCOBjjXbAl9ip+kGOtdsD3ShYaatF+m2vsDauyiZbUdL17pA2+zovxq6Ffw8fVvvJpiJTODtUrywACCiSCSzHehctwuaHsx6AN1MoGv9taHsU29ftQW5ruDuq0jlutG5Zkfgq+o1w0TPhutgJQO6WEsItPVtRrZj+R7aRQvHbYBEFJlkth29m25AYWwAlcLYks7w13QT2Y5+5DpXQ4S0uFAIgdaejUhm2lEYP4N6tbikw5vMZAYtXeuRynWGtqVONxLo3ng9SlPnUcoPLu0sAyGQynaitWcDjERjZynQ8sECQAXdW/mHvxPNQTcSaO/fitZVm2CXC/Cc2vyH2ggB3TBhmEmYqZbIzhZIZNrQnbkenluHXS3Ac+z5ixZNwNATMFPZyE7RE0Ig17EaufZ+OLUybLsM33XmLVqEpsOwkrDSLaHv1LgifiYqwQJAgbqm5VVnIFJNE3ok2+6CoBsJpAJavR8qIWCmsjBTWdVJFkXW9VHVGZoR1wAoYOoOf9mJiN6QypjDqjM0IxYACjz+yTunhNCa5zYYIqI5CKHJvQ+8J9i7tmlBWAAooulGRXUGIiLVNE3nZRqKsABQRBfaiOoMRESq6ZrB4X9FWAAoIjTjWdUZiIhU03T9adUZmhULAEWEIf636gxERKoZpvYt1RmaFS97Vui2L/2g5nkOb9sgoqak60btH/7o7mgOS6DLcARAIcMwf646AxGRKrqReFJ1hmbGAkAhzdc+LzgIQ0RNSUDTEv9RdYpmxqePYr/5p3973LFrW1TnICKKkmWljj7x4Ae3qc7RzDgCoJihJR9QnYGIKEoCAsI0P6E6R7PjCEAM3P7lv3vRrldvUJ2DiCgKppXav+/BD75TdY5mxxGAGMgY1l2arvM2LCJa8TRddyESH1Kdg1gAxMIPPvO+Yd1Mfkp1DiKicAmYVuqz+z53+5jqJMQpgFi5/cs//Hu7XrlNdQ4iojBYicwTT3zuzvepzkEXsACIEynFe//0h4ddp8qVsUS0ophm8sS+Bz94NYTgTagxwSmAOBFCOj0Tv2aYifOqoxARBcW0kkN6ytzFh3+8sACImZ99/OO1to32RstMvaY6CxFRo0wz+XrRqG/5yafeX1edhS7FKYC4klLc/pXHf2zXy5wvI6JlKWFmHv/pgx+4i2/+8cQRgLgSQj7xuTvvSKZyn9Q03VUdh4hooTRhuMlky30//fd33smHf3xxBGAZ+PAX/6GzalQfq9uV31CdhYhoLgIChpV8KaGJ9/3wD+/Kq85DV8YCYBn5wFeeuMHx64+4du0GCRbVRBQXAoaZOGFY5sd/8pn3P6M6DS0MC4Bl6P1ffXyr78svuK79Ps9zsqrzEFFz0nWzZBiJHxvS/+MfPXjXCdV5aHFYACxzH/jvf7/N9ez74Hm3+tJb4/teq/R9gyMERBQUAQGh6a6m6TNC088ZhvaUaxrf3Pf7tx9VnY2WzlAdgBqTXj11HBNrvuNDH4CQ1whgqxToFRItvvRXq85HRMubJrQhKVAQEqMSOA4pjmrwnkHnIN/4lzmOACxDtz70lNG9Kn27L+VHBXAHgBbVmYio6cxA4CdS4tGJkeq+nz30Hu5WWmZYACwjH/32wUytUrlPSvFZCPSrzkNE9IYhKcVX05nkNx/92HVl1WFoYVgALAdSinsfeeG3pcSXIGS36jhERHMYkxJ/9Nj9t/wl9//HHwuAmPvII89s8nzj2xByj+osREQLIYBnfF//2GOfvOmU6iw0N54EGGN3P/zcb3lSP8CHPxEtJxJ4l9C8A3c/vP9u1VlobiwAYureb+z/tBDie+ACPyJanlqFwN57Hn7uIdVBaHacAoihex7e/xUIfFZ1DiKigHzl+/fv/pzqEHQpjgDEzD2PPP8nfPgT0Qrzh/d847k/Vh2CLsURgBi59+Hn/o0U4i9V5yAiCoEUEv967yd2P6o6CF3AAiAm7v7mCzuE778AIK06CxFRSMoCuHnv/buPqA5CnAKIhXv/5rCl+d73wIc/Ea1sGSnw3d975EVTdRBiARAPU8U/kBA7VccgIgqdxLWTcD+lOgZxCkC5f/n1p/td0zgOIKM6CxFRREqmjs3f/d3do6qDNDOOACjmmOZnwYc/ETWXrOPLP1AdotlxBEChe//82Q7pagMAsqqzEBFFrGj5zvrvfPLdU6qDNCuOAKjk6P8KfPgTUXPK1TXrI6pDNDMWAApJIT+qOgMRkSpCgp+BCnEKQJF7H352tRTaoOocREQKSeFp/XsfuHlEdZBmxBEARXyhvUd1BiIixYSvS34WKsICQBEB/LrqDEREqgkhf0N1hmbFAkAVKXaojkBEpJzEdtURmhULAFWEvFp1BCKiGOBnoSIsABS442s/TgDoVJ2DiCgGeng3gBosABRoS/TkVGcgIoqLKd3mZ6IChuoAzaju1DOaoauOQaScY1fgunVIz5333+q6Bd1KwjASESS7lJQ+nHoZnutASu/K/1hoMAwThpWBpkX/d+57Dmy7At9zACmv+G+FMGCYFoxEGkLhrnCvJnMAJpUFaFIsABQQmqUD83yIEK1Qvu+hMDWI8vQIXLe+6K+3klnk2vqRbekL/SQTx65iZmIA1dIEfH9xf7NCaEil29HauQ5WKuQXXAlUynkUJgdhV4uQuPKD/+10w0Im142WjnXQjehH4y98JlLUWAAQUWTsahFjw0fgOYt/8L/ZRq2EiZHjKE0Po2v1DhiGFWDCXylMDmJq/DSwyIfpRVL6qJQnUKlMoKV9Ddq7rgqlYPF9F/nzR1EtL/0F2nNtFKaGUCqMoqtvG1LZ9gATUlxxDQARRaJeLWJk8JcNPfwvaa9WxOjAy/BcO5D23mo6fwZT46ew1If/JeSFYmJi5Fjjbb2N73sYPffLhh7+l7TnuRg7fwjVYj6Q9ijeWAAQUeh8z8X4+cOQixxGn4/r1pEffi3QNqulScxMng20TQAoFUZRnD4faJuTo6/DrpUCbRMSyI8cg+tUg22XYocFABGFrjA5GMqbOgDUKjOolIJ6Y5UX3vwDePGfzXR+AL4//4LHhbDrJZSLo4G09Xa+72F6/EwobVN8sAAgolBJSJQK4d71UpoeDqSdWmUajl0JpK3Z+J6DSkDD66Wp4dAKFQAol8Yv7CSgFYsFABGFyqmVQnv7v6hWmYaUfuPtlKcDSHNl1fJUMO1UgmlnTvLC95VWLhYARBQq16mF3oeUMpAiw4kgayDfDwm47jLJSrHFbYC0YAISa7JT2N4xhLW5KfSkZpAyHAghUXUt5KtZDJY68NpUP84UuuBLdQeLREVYOowOE1qLDpHWIQwNQhPwXR/SlvArLvwZF/60A+mFOF4bY34Ab+YLEcQIgPTDzxpITvihDv9f5Efw/SB1WADQvLJmHe9d9ypu7T+KvszMgr5mspbBPw9fjZ8O7MJkLRNywogJwOhLwFydgt42+6Epvxpae+PUOl/CHa3DOVeFVwhmEdhyYejRnNyn642fBxDFIThGADmF0KBpRmALCueih3TGAsUDCwCak6n5+ODGA/jgxpeRNBa3GKgjWcaHNh7A+9e/gn1nd2Hv6zeh6i7/DxOjJ4HElgxEapEHl2kCxqokjFVJeHkb9eMl+JXmOA3SSmUhhBbIm+9cTCsNTW/84yyRakFpJtwFi4l0S0Dt5FAthbsOIJkKJivFEwsAmtXa7CT+3fX7sCbb2AEjpubjAxsOYnffSXzt4HtxdGpVQAmjJQyBxPYcjJ7G32b1LgvpjnbUj5fhDK78vdaaZiCZbgvssJrZZFq6A2knle0Mt1gRQDrbFUhT6VxPqAWAaaVhJlbY6B1dgosA6TLXd53FF975WMMP/7fqTJbwn276W9y6+mhgbUZFpHSkb24P5OH/Jk0gcU0WiW05iJW/VAJtXetDO7df003k2lYH0paum8i1B9PWbDLZ7sAeqtmWHphWKpC2ZtPWvSG0tikeWADQJX6t5wwevOHHSOjB7//VNR/373oK7137auBth0VL6Ujd2AaRDueuEnN1EomdudAvtVHNSubQ1rE+8HYFBDpXbQ1k+P+itq71oVzeYxgJdPRuDrBFga5V2yBCuHEw29Ib2EgFxRcLAHrTptYxfOa6fdBFeHO1AhK/vf2fcUPPmdD6CIwhkLy+FVoi3D8TozcJa0s21D7ioLVzPVoCfLsWQkNH3xakM52BtXmx3e7+HbASwf1MTDOJnrW7oOnBLjK0kll0r9oe6LXD6VwXOvq2BtYexRcLAAIApAwbn75uHyw9/BXqmpB4YNeT6EoWQ++rEcltOWiZaG4ptdalYHQv/0WSVySA9p5N6OrfBsNsbOg6kWpB77rrkG3tCyjcpQzDQt+669DauRZCNPIxKZBrXYW+9e+AaaUDy/dWqWw7+ta/A6lMR0Pt6IaFzt7N6F61HaIZ5qWIiwDpgo9seR696UJk/WXMOj6+/Wl8+cAdkfW5GHqnBaM3mu1rFyWuycGbmoR0V/Z5AZlcN9LZLtSq06iVp+A5dXj+/FNOum7BNFNIZTpgJcOfNhGajraujci1r0G1PAm7WoDr2JC48u4NAQ26YcFK5pDOdkaylc600uhZsxNOvYxKeQJuvQrXszHfYQFCM2AaCSRTrUhmOxosdmi5YQFA6MvM4DfXHo683xt7TmN7+3kcmeqPvO8rEgLJq6MfkhcJDeb6NOyT5cj7jpoQAql0O1Lp+N87r+smsi29QEuv6ijzMhMZtHLlPi0Qyz3CXRtega6pOfHrw5tfUtLvlRjdVmiL/uZjrk1B6Bx+JaLwsQBocpbuYs+qE8r639U5iO5UvNYCGKuTyvoWhoAe8dQDETUnFgBN7rqus0gb4d7UdiUCEjf1nFLW/2VMDUZH+MfBXjFCkOcNEBHNgQVAk9vZMaQ6AnZ2qs9wkd5mQvXJPFq7qToCETUBFgBNbn1uQnUErG9Rn+EiLadm7v+thC4Wf9cAEdEisQBocn3padUR0JkswdTicTGOHpMHr6ZoESIRNQ8WAE0uY6qb/79IQCJt1FXHuMCMydi7yT9NIgoXP2WaXJjH/i5GXEYA4jL5zvNYiChs/JhpcnU/HmdBVd2YHIMbk1P4pBOPHES0crEAaHJT9XDOJ1+MumeiEpMCQNrxGBGR9XjkIKKViwVAkztfauwCkUAylFshY3Ifrl+Ox1SEXwn/UiYiam4sAJrcselwblNbVIapVaojvMmbnv9SmrDJssspACIKHQuAJvfK+DrVEfBKXn2Gi/yyC1lXOwrgTKgvQoho5WMB0OTOlTpwutClrP+Ck8Qv82uV9X8ZCbgjardGuiM1pf0TUXNgAUD4ycC1yvp+YmAXPBmvX0P7XGW+a9RD48+48Auc/yei8MVjDxgp9fT5rfjwpgNYFfGpgEU7qbT4mIus+XDOV2GuTkXed/1kKfI+VZLSh+vakP78RY+umdAME0LRIQm+58Jz65DzVocChmFB0xVdKiUB17Phew7mq2SF0KAbCWgaT55sRiwACJ7U8BdH3o3P3/gjiAhffb9z/J0oO/G8+c5+vQyjJwkR4cmA7mgd3uTKn/+XkKgUxlGcGUG9MoPFDLdomo5kph0tbf1IpNvCC/kG33NRmBpEpTgOx64u6msNM4l0thMt7Wugm+H/ntv1MgqT51AtTcJfQEF1kYCAlcoik+tFtq1PWYFF0WMBQACAQ/m1+OnATtyx/lAk/R0Y24CnBq+JpK+lkI5E7XABqetbo+mv5qN+tBhJXyq5bh3jg4dh15c20uH7HirFPCrFPNK5bnT2bQ3t7bVSzGNi9Dh8b2lTMq5TQ2FqCMXpYbT3XIVcW3/ACS+QUmJ67BSK0+cXMDoxy9dDol4tol4tojg1iK7+7bCS2RCSUtyw1KM3/dXRPTg0sSb0fgaKnfj6L2+Lzd7/uXh5G/VT5dD7kZ5E7eDMit/65zhVDJ85sOSH/9tViuMYPXcQvh/8ro3SzAjGh48s+eH/VlL6mBx9HdP5M40Hu7x1jA8dRmF6aEkP/7dznBpGzx1EvVoIIBvFHQsAepMrdXz1wB04MhXOmwpwYdfBl168KzYn/83HOVWBM7C4od/FkJ5E7ZUZeMWVvfBPSh/jg4ffmNRaOc4AAAdkSURBVJcOjl0rYXLkeKBt1qsFTI6eCHwh6MzkWZSL44G2OT1+BtXyZKBt+r6H8aEjgf+sKH5YANAlqp6JL/7iLjwzvDXwtg/l1+Kh5z8ci+OHF6N+ooT68VLgDwRZ9VB9cRre1Mr/oC1ODcGxK6G0XS6Oo1YJaAGrBCbHTkHKEEZjJDA1dhIyoBEL166iMDUYSFtv53k2pvMDobRN8cECgC7j+Dq+dvA2fOPV96AUwCK9umfg/xzfjS+8dGcg7angnK2i+uJ0YEcFu8M1lF+Yhr/C3/wvKk4Ph9v+1PlA2qnXCrBr4Q1/e66NSkBv7MXp8+EUKm8ozQwHVqxQPHERIM3pqcFteHFsAz608WW8d+1hJI3Fvam6UsfPB6/GD07egHwtF1LK6HgzDir7J2GuTsFcn4KWWvziM2/Chn26Eosjh6Ni18twnXAPN6pVpnBhiKaxdSVBD6fP2kdpAplcd+PthJxVSolqdRrpTGeo/ZA6LADoiop2Cn91bA8eO3kjbuk9hZt7TuGazmFkjPqs/77umTg6tQovja/Hc+e3oOAkI04cMgk4g1U4QzXoHSaM3gSMDgsiOcdgmpTwih68CRvOSB2y3Bxv/G/lLnL73FL4vgfPsRvebhdFVsduvBiSkKEXVQDg2jUgE3o3pAgLAFqQqmvhZ0PX4GdD10BAojNZQk+qiJRpQ0Ci6lrI13IYr+bgy3iv7g+ElPAmbHgTNuoAhCkg0jqEoUHoAnAlfNuHrHiQ/spe3T8fKaMZRvZ9FzoaKwD8CLIu5NCjefl+qMP/F8kAdkFQfLEAoEWTEMjXcitiWD8o0pGQM/ywnI2mR7PjQzcaX1+iR5BVNxrvQ2g6hKaHPkevG4pOM6RIcBEgEYXKSmYgQj7zwTAS0PTG32fMZPjj3UEdspOI4LAeM8EifyVjAUBEodJ1C1aqJdQ+0gEsqgOAdLYLjS4kXFgfQbQTzP95LoaRQCLJAmAlYwFARKFr69oQWttCaGhpXx1IW4aRQLa1N5C2ZpPMtCMRUDGUbesL9Y6B1s71YddCpBgLACIKXTLdimxrXyhtt/duCvRB2Na9EYYZ/O4VTTfQ0bs5sPaE0NDZsyWUh3Qy0x7az4vigwUAEUWio3czUrlghr8BAAJo7VqHXOuq4NoEoOsmetbsDLQI0HQDPat3wDSDvWI6le1AZ+9WBFkFJFIt6O7fxrf/JsACgIgiIYSG7v5taO/e2PANfoaZRPeq7Wjr3BBMuLcxrTT61l2PdK6r4QdhKt2OvvXvQCIVzs2S2dY+9K69FmaisQWMQmho6ViL3rXXQdO4QawZ8KdMRJEREGjpWItsax/KpTxqpSm4Tm1BN/rphgnDTCKV7UQ62xn6vfW6YaG7fzvsehmV0jjsShGuW593/70QF77WSuaQznYFNud/Jcl0K/rX34BqeRKVUh6OXYHvOvNeXyE0DYaZQDLdhky2O9Q1BRQ/LAAUML16zWWFTU1M003kWlcFPnwfBiuRgZXIAHE/EVdcmBJIZTtUJ1k0qYvwj2Cky3AKQAFdGsFciE5EtAJkUmZ4NzDRnFgAKLBl8pYSgOa5DYaIaG72ox+9Npy7oumKWAAo8NBDwpfAadU5iIhUkwInIURzX5ihCAsARTSIY6ozEBGppknws1ARFgCKSIGXVGcgIlJNQvKzUBEWAKp4+EfVEYiIlNMkPwsVYQGgiOjKPg9gRnUOIiKFpjuk9QvVIZoVCwBF9v7WDltCfl91DiIiVSTwN9+870buiFKEBYBCEvq3VWcgIlJFE3hUdYZmxuseFLvnG/t/AeBG1TmIiKIkgAN777vlRm4BVIcjAMrJL6lOQEQUOV/+Zz781WIBoNjOkd3/D8BzqnMQEUXo6b2f2P1D1SGaHQsAxR56SPhC+PcBcFVnISKKgOtB/Fu+/avHAiAG9t6355AU4r+qzkFEFDYJfPH/3n/LQdU5iAVAbGjtA38C8HAgIlrBpPi51nH2v6iOQRdwF0CM3PtnL/RJ3X8WwEbVWYiIgiQhTlq6fNd3f3f3qOosdAFHAGJk7wM3j0jgdgBjqrMQEQVoTPO89/HhHy8sAGLmsft3n9A9eSsgz6rOQkTUMInzQvi37X1gz+uqo9ClWADE0F8/8M7XDE//FxD4peosREQNeEXAv3nvfXsOqQ5Cl2MBEFPfe+Dmc1mregskvqY6CxHRYkmBR+vCeNfeT+wZUp2FZsdFgMvAPQ8/fyeE/Bq4OJCI4u+UBH7/sft3/1h1ELoyjgAsA9//xC0/EhV/B4T4PIC86jxERLPIA/gPouLv5MN/eeAIwDLz0W8fzNQq1d8B8HEJXKc6DxE1NwEc9IX8VjqV/otHP3ZdWXUeWjgWAMvY3f9r/7VCF3cKX75HCuwBkFadiYhWvLKQeE4K/KMQ/o+4wG/5YgGwQjz0kNSO9u5f52piq5ToAURWwG9VnYuIljcJbQaQJSEw5jvesR88sOcsz/EnIiIiIiIiIiIiIiIiIiIiIiIiIiIiIiIiIiIiIiIiIgrW/weytaUJS35RlAAAAABJRU5ErkJggg==;" vertex="1" parent="1">
          <mxGeometry x="320" y="520" width="120" height="120" as="geometry" />
        </mxCell>
        <mxCell id="QVymqVo6n4Ka5hsR-ZMD-16" value="&lt;b&gt;Yahoo Finance Servers&lt;/b&gt;" style="text;html=1;align=center;verticalAlign=middle;resizable=0;points=[];autosize=1;strokeColor=none;fillColor=none;" vertex="1" parent="1">
          <mxGeometry x="300" y="490" width="160" height="30" as="geometry" />
        </mxCell>
        <mxCell id="QVymqVo6n4Ka5hsR-ZMD-17" value="&lt;b&gt;Price Saver (Python)&lt;/b&gt;" style="text;html=1;align=center;verticalAlign=middle;resizable=0;points=[];autosize=1;strokeColor=none;fillColor=none;" vertex="1" parent="1">
          <mxGeometry x="550" y="490" width="140" height="30" as="geometry" />
        </mxCell>
        <mxCell id="QVymqVo6n4Ka5hsR-ZMD-18" value="&lt;b&gt;Fetch Stock&lt;br&gt;Prices&lt;br&gt;&lt;/b&gt;" style="text;html=1;align=center;verticalAlign=middle;resizable=0;points=[];autosize=1;strokeColor=none;fillColor=none;" vertex="1" parent="1">
          <mxGeometry x="450" y="580" width="90" height="40" as="geometry" />
        </mxCell>
        <mxCell id="QVymqVo6n4Ka5hsR-ZMD-20" value="&lt;b&gt;Store Stock Prices&lt;br&gt;&lt;/b&gt;" style="text;html=1;align=center;verticalAlign=middle;resizable=0;points=[];autosize=1;strokeColor=none;fillColor=none;" vertex="1" parent="1">
          <mxGeometry x="700" y="550" width="130" height="30" as="geometry" />
        </mxCell>
        <mxCell id="QVymqVo6n4Ka5hsR-ZMD-21" value="&lt;b&gt;Data Fetching and Storage&lt;/b&gt;" style="text;html=1;align=center;verticalAlign=middle;resizable=0;points=[];autosize=1;strokeColor=none;fillColor=none;" vertex="1" parent="1">
          <mxGeometry x="310" y="250" width="180" height="30" as="geometry" />
        </mxCell>
        <mxCell id="QVymqVo6n4Ka5hsR-ZMD-33" style="edgeStyle=orthogonalEdgeStyle;rounded=1;orthogonalLoop=1;jettySize=auto;html=1;entryX=0.5;entryY=0;entryDx=0;entryDy=0;" edge="1" parent="1" source="QVymqVo6n4Ka5hsR-ZMD-24" target="QVymqVo6n4Ka5hsR-ZMD-32">
          <mxGeometry relative="1" as="geometry" />
        </mxCell>
        <mxCell id="QVymqVo6n4Ka5hsR-ZMD-34" style="edgeStyle=orthogonalEdgeStyle;rounded=1;orthogonalLoop=1;jettySize=auto;html=1;entryX=0.5;entryY=0;entryDx=0;entryDy=0;" edge="1" parent="1" source="QVymqVo6n4Ka5hsR-ZMD-24" target="QVymqVo6n4Ka5hsR-ZMD-30">
          <mxGeometry relative="1" as="geometry" />
        </mxCell>
        <mxCell id="QVymqVo6n4Ka5hsR-ZMD-24" value="" style="sketch=0;points=[[0,0,0],[0.25,0,0],[0.5,0,0],[0.75,0,0],[1,0,0],[0,1,0],[0.25,1,0],[0.5,1,0],[0.75,1,0],[1,1,0],[0,0.25,0],[0,0.5,0],[0,0.75,0],[1,0.25,0],[1,0.5,0],[1,0.75,0]];outlineConnect=0;fontColor=#232F3E;gradientColor=#F78E04;gradientDirection=north;fillColor=#D05C17;strokeColor=#ffffff;dashed=0;verticalLabelPosition=bottom;verticalAlign=top;align=center;html=1;fontSize=12;fontStyle=0;aspect=fixed;shape=mxgraph.aws4.resourceIcon;resIcon=mxgraph.aws4.compute;" vertex="1" parent="1">
          <mxGeometry x="800" y="750" width="120" height="120" as="geometry" />
        </mxCell>
        <mxCell id="QVymqVo6n4Ka5hsR-ZMD-26" value="&lt;b&gt;Load Data&lt;br&gt;&lt;/b&gt;" style="text;html=1;align=center;verticalAlign=middle;resizable=0;points=[];autosize=1;strokeColor=none;fillColor=none;" vertex="1" parent="1">
          <mxGeometry x="810" y="720" width="80" height="30" as="geometry" />
        </mxCell>
        <mxCell id="QVymqVo6n4Ka5hsR-ZMD-28" value="&lt;b&gt;Format Data,&lt;br&gt;Perform Analysis&lt;br&gt;for Training (Python)&lt;br&gt;&lt;/b&gt;" style="text;html=1;align=center;verticalAlign=middle;resizable=0;points=[];autosize=1;strokeColor=none;fillColor=none;" vertex="1" parent="1">
          <mxGeometry x="790" y="870" width="140" height="60" as="geometry" />
        </mxCell>
        <mxCell id="QVymqVo6n4Ka5hsR-ZMD-40" style="edgeStyle=orthogonalEdgeStyle;rounded=1;orthogonalLoop=1;jettySize=auto;html=1;" edge="1" parent="1" source="QVymqVo6n4Ka5hsR-ZMD-30" target="QVymqVo6n4Ka5hsR-ZMD-37">
          <mxGeometry relative="1" as="geometry" />
        </mxCell>
        <mxCell id="QVymqVo6n4Ka5hsR-ZMD-30" value="&lt;b&gt;Embedding Layer (for Text)&lt;/b&gt;" style="rounded=0;whiteSpace=wrap;html=1;fillColor=#e1d5e7;strokeColor=#9673a6;" vertex="1" parent="1">
          <mxGeometry x="320" y="840" width="170" height="40" as="geometry" />
        </mxCell>
        <mxCell id="QVymqVo6n4Ka5hsR-ZMD-39" style="edgeStyle=orthogonalEdgeStyle;rounded=1;orthogonalLoop=1;jettySize=auto;html=1;" edge="1" parent="1" source="QVymqVo6n4Ka5hsR-ZMD-32" target="QVymqVo6n4Ka5hsR-ZMD-37">
          <mxGeometry relative="1" as="geometry" />
        </mxCell>
        <mxCell id="QVymqVo6n4Ka5hsR-ZMD-32" value="&lt;b&gt;LSTM Layer (for Prices)&lt;/b&gt;" style="rounded=0;whiteSpace=wrap;html=1;fillColor=#e1d5e7;strokeColor=#9673a6;" vertex="1" parent="1">
          <mxGeometry x="510" y="840" width="170" height="40" as="geometry" />
        </mxCell>
        <mxCell id="QVymqVo6n4Ka5hsR-ZMD-35" value="&lt;b&gt;Pass Data&lt;/b&gt;" style="text;html=1;align=center;verticalAlign=middle;resizable=0;points=[];autosize=1;strokeColor=none;fillColor=none;" vertex="1" parent="1">
          <mxGeometry x="560" y="750" width="80" height="30" as="geometry" />
        </mxCell>
        <mxCell id="QVymqVo6n4Ka5hsR-ZMD-45" style="edgeStyle=orthogonalEdgeStyle;rounded=0;orthogonalLoop=1;jettySize=auto;html=1;" edge="1" parent="1" source="QVymqVo6n4Ka5hsR-ZMD-37" target="QVymqVo6n4Ka5hsR-ZMD-41">
          <mxGeometry relative="1" as="geometry" />
        </mxCell>
        <mxCell id="QVymqVo6n4Ka5hsR-ZMD-37" value="&lt;b&gt;Concatenation Layer&lt;/b&gt;" style="rounded=0;whiteSpace=wrap;html=1;fillColor=#e1d5e7;strokeColor=#9673a6;" vertex="1" parent="1">
          <mxGeometry x="320" y="920" width="360" height="40" as="geometry" />
        </mxCell>
        <mxCell id="QVymqVo6n4Ka5hsR-ZMD-46" style="edgeStyle=orthogonalEdgeStyle;rounded=0;orthogonalLoop=1;jettySize=auto;html=1;exitX=0.5;exitY=1;exitDx=0;exitDy=0;entryX=0.5;entryY=0;entryDx=0;entryDy=0;" edge="1" parent="1" source="QVymqVo6n4Ka5hsR-ZMD-41" target="QVymqVo6n4Ka5hsR-ZMD-42">
          <mxGeometry relative="1" as="geometry" />
        </mxCell>
        <mxCell id="QVymqVo6n4Ka5hsR-ZMD-41" value="&lt;b&gt;Dense Hidden Layers&lt;/b&gt;" style="rounded=0;whiteSpace=wrap;html=1;fillColor=#e1d5e7;strokeColor=#9673a6;" vertex="1" parent="1">
          <mxGeometry x="320" y="1000" width="360" height="40" as="geometry" />
        </mxCell>
        <mxCell id="QVymqVo6n4Ka5hsR-ZMD-48" style="edgeStyle=orthogonalEdgeStyle;rounded=0;orthogonalLoop=1;jettySize=auto;html=1;entryX=0;entryY=0.5;entryDx=0;entryDy=0;entryPerimeter=0;" edge="1" parent="1" source="QVymqVo6n4Ka5hsR-ZMD-42" target="QVymqVo6n4Ka5hsR-ZMD-47">
          <mxGeometry relative="1" as="geometry" />
        </mxCell>
        <mxCell id="QVymqVo6n4Ka5hsR-ZMD-42" value="&lt;b&gt;Dense Output Layer&lt;/b&gt;" style="rounded=0;whiteSpace=wrap;html=1;fillColor=#e1d5e7;strokeColor=#9673a6;" vertex="1" parent="1">
          <mxGeometry x="320" y="1080" width="360" height="40" as="geometry" />
        </mxCell>
        <mxCell id="QVymqVo6n4Ka5hsR-ZMD-47" value="" style="sketch=0;points=[[0,0,0],[0.25,0,0],[0.5,0,0],[0.75,0,0],[1,0,0],[0,1,0],[0.25,1,0],[0.5,1,0],[0.75,1,0],[1,1,0],[0,0.25,0],[0,0.5,0],[0,0.75,0],[1,0.25,0],[1,0.5,0],[1,0.75,0]];outlineConnect=0;fontColor=#232F3E;gradientColor=#F78E04;gradientDirection=north;fillColor=#D05C17;strokeColor=#ffffff;dashed=0;verticalLabelPosition=bottom;verticalAlign=top;align=center;html=1;fontSize=12;fontStyle=0;aspect=fixed;shape=mxgraph.aws4.resourceIcon;resIcon=mxgraph.aws4.compute;" vertex="1" parent="1">
          <mxGeometry x="800" y="1040" width="120" height="120" as="geometry" />
        </mxCell>
        <mxCell id="QVymqVo6n4Ka5hsR-ZMD-49" value="&lt;b&gt;Prediction and&lt;br&gt;Visualisation (Python)&lt;br&gt;&lt;/b&gt;" style="text;html=1;align=center;verticalAlign=middle;resizable=0;points=[];autosize=1;strokeColor=none;fillColor=none;" vertex="1" parent="1">
          <mxGeometry x="785" y="1160" width="150" height="40" as="geometry" />
        </mxCell>
        <mxCell id="QVymqVo6n4Ka5hsR-ZMD-51" value="&lt;b&gt;Analysis, Model Training and Prediction&lt;/b&gt;" style="text;html=1;align=center;verticalAlign=middle;resizable=0;points=[];autosize=1;strokeColor=none;fillColor=none;" vertex="1" parent="1">
          <mxGeometry x="310" y="690" width="250" height="30" as="geometry" />
        </mxCell>
      </root>
    </mxGraphModel>
  </diagram>
</mxfile>
